<svg width="20" height="15" viewBox="0 0 20 15" fill="none" xmlns="http://www.w3.org/2000/svg">
<path d="M12.4997 9.16683C10.2747 9.16683 5.83301 10.2752 5.83301 12.5002V14.1668H19.1663V12.5002C19.1663 10.2752 14.7247 9.16683 12.4997 9.16683ZM4.99967 5.8335V3.3335H3.33301V5.8335H0.833008V7.50016H3.33301V10.0002H4.99967V7.50016H7.49967V5.8335M12.4997 7.50016C13.3837 7.50016 14.2316 7.14897 14.8567 6.52385C15.4818 5.89873 15.833 5.05088 15.833 4.16683C15.833 3.28277 15.4818 2.43493 14.8567 1.80981C14.2316 1.18469 13.3837 0.833496 12.4997 0.833496C11.6156 0.833496 10.7678 1.18469 10.1427 1.80981C9.51753 2.43493 9.16634 3.28277 9.16634 4.16683C9.16634 5.05088 9.51753 5.89873 10.1427 6.52385C10.7678 7.14897 11.6156 7.50016 12.4997 7.50016Z" fill="#005680"/>
</svg>
