<svg width="30" height="30" viewBox="0 0 30 30" fill="none" xmlns="http://www.w3.org/2000/svg">
<path d="M6.5625 14.0625H25.3125C25.5611 14.0625 25.7996 14.1613 25.9754 14.3371C26.1512 14.5129 26.25 14.7514 26.25 15C26.25 15.2486 26.1512 15.4871 25.9754 15.6629C25.7996 15.8387 25.5611 15.9375 25.3125 15.9375H6.5625C6.31386 15.9375 6.0754 15.8387 5.89959 15.6629C5.72377 15.4871 5.625 15.2486 5.625 15C5.625 14.7514 5.72377 14.5129 5.89959 14.3371C6.0754 14.1613 6.31386 14.0625 6.5625 14.0625Z" fill="#005680"/>
<path d="M6.95084 14.9992L14.7265 22.773C14.9025 22.949 15.0014 23.1878 15.0014 23.4367C15.0014 23.6857 14.9025 23.9244 14.7265 24.1005C14.5504 24.2765 14.3117 24.3754 14.0627 24.3754C13.8138 24.3754 13.575 24.2765 13.399 24.1005L4.96146 15.663C4.87415 15.5759 4.80489 15.4724 4.75763 15.3585C4.71036 15.2446 4.68604 15.1225 4.68604 14.9992C4.68604 14.8759 4.71036 14.7538 4.75763 14.6399C4.80489 14.526 4.87415 14.4226 4.96146 14.3355L13.399 5.89798C13.575 5.72194 13.8138 5.62305 14.0627 5.62305C14.3117 5.62305 14.5504 5.72194 14.7265 5.89798C14.9025 6.07402 15.0014 6.31278 15.0014 6.56173C15.0014 6.81069 14.9025 7.04944 14.7265 7.22548L6.95084 14.9992Z" fill="#005680"/>
</svg>
