<svg width="30" height="30" viewBox="0 0 30 30" fill="none" xmlns="http://www.w3.org/2000/svg">
<path d="M25.3125 13.8125H6.5625C6.24756 13.8125 5.94551 13.9376 5.72281 14.1603C5.50011 14.383 5.375 14.6851 5.375 15C5.375 15.3149 5.50011 15.617 5.72281 15.8397C5.94551 16.0624 6.24756 16.1875 6.5625 16.1875H25.3125C25.6274 16.1875 25.9295 16.0624 26.1522 15.8397C26.3749 15.617 26.5 15.3149 26.5 15C26.5 14.6851 26.3749 14.383 26.1522 14.1603C25.9295 13.9376 25.6274 13.8125 25.3125 13.8125Z" fill="#005680" stroke="#005680" stroke-width="0.5"/>
<path d="M14.903 22.5969L14.903 22.5969L7.30419 15L14.903 7.40301L14.903 7.40299C15.1259 7.18007 15.2512 6.87772 15.2512 6.56246C15.2512 6.24721 15.1259 5.94486 14.903 5.72194C14.6801 5.49901 14.3777 5.37378 14.0625 5.37378C13.7472 5.37378 13.4449 5.49901 13.2219 5.72194L4.78466 14.1592L4.96122 14.3362L4.78444 14.1594L4.78451 14.1594C4.67399 14.2696 4.58631 14.4006 4.52647 14.5448C4.46661 14.6891 4.43579 14.8438 4.43579 15C4.43579 15.1562 4.46661 15.3108 4.52647 15.4551L4.75672 15.3596L4.52647 15.4551C4.58631 15.5993 4.67399 15.7303 4.78451 15.8406C4.78456 15.8406 4.78461 15.8407 4.78466 15.8407L13.2219 24.278C13.4449 24.5009 13.7472 24.6261 14.0625 24.6261C14.3777 24.6261 14.6801 24.5009 14.903 24.278C15.1259 24.0551 15.2512 23.7527 15.2512 23.4375C15.2512 23.1222 15.1259 22.8199 14.903 22.5969Z" fill="#005680" stroke="#005680" stroke-width="0.5"/>
</svg>
