<svg width="35" height="50" viewBox="0 0 35 50" fill="none" xmlns="http://www.w3.org/2000/svg">
<path d="M8.44824 24.25H19.6982V19.25C19.6982 18.8958 19.8182 18.5992 20.0582 18.36C20.2982 18.1208 20.5949 18.0008 20.9482 18H25.9482V6.75H8.44824V24.25ZM8.44824 26.75C7.76074 26.75 7.17241 26.5054 6.68324 26.0163C6.19408 25.5271 5.94908 24.9383 5.94824 24.25V6.75C5.94824 6.0625 6.19324 5.47417 6.68324 4.985C7.17324 4.49583 7.76158 4.25083 8.44824 4.25H25.9482C26.6357 4.25 27.2245 4.495 27.7145 4.985C28.2045 5.475 28.4491 6.06333 28.4482 6.75V18.2188C28.4482 18.5521 28.3857 18.87 28.2607 19.1725C28.1357 19.475 27.9587 19.7404 27.7295 19.9688L21.667 26.0312C21.4378 26.2604 21.1724 26.4375 20.8707 26.5625C20.5691 26.6875 20.2512 26.75 19.917 26.75H8.44824ZM15.9482 18H12.1982C11.8441 18 11.5474 17.88 11.3082 17.64C11.0691 17.4 10.9491 17.1033 10.9482 16.75C10.9474 16.3967 11.0674 16.1 11.3082 15.86C11.5491 15.62 11.8457 15.5 12.1982 15.5H15.9482C16.3024 15.5 16.5995 15.62 16.8395 15.86C17.0795 16.1 17.1991 16.3967 17.1982 16.75C17.1974 17.1033 17.0774 17.4004 16.8382 17.6413C16.5991 17.8821 16.3024 18.0017 15.9482 18ZM22.1982 13H12.1982C11.8441 13 11.5474 12.88 11.3082 12.64C11.0691 12.4 10.9491 12.1033 10.9482 11.75C10.9474 11.3967 11.0674 11.1 11.3082 10.86C11.5491 10.62 11.8457 10.5 12.1982 10.5H22.1982C22.5524 10.5 22.8495 10.62 23.0895 10.86C23.3295 11.1 23.4491 11.3967 23.4482 11.75C23.4474 12.1033 23.3274 12.4004 23.0882 12.6413C22.8491 12.8821 22.5524 13.0017 22.1982 13Z" fill="#113F67"/>
<path d="M5.964 41.474C6.31867 41.53 6.64067 41.6747 6.93 41.908C7.22867 42.1413 7.462 42.4307 7.63 42.776C7.80733 43.1213 7.896 43.49 7.896 43.882C7.896 44.3767 7.77 44.8247 7.518 45.226C7.266 45.618 6.89733 45.9307 6.412 46.164C5.936 46.388 5.37133 46.5 4.718 46.5H1.078V36.742H4.578C5.24067 36.742 5.80533 36.854 6.272 37.078C6.73867 37.2927 7.08867 37.5867 7.322 37.96C7.55533 38.3333 7.672 38.7533 7.672 39.22C7.672 39.7987 7.51333 40.2793 7.196 40.662C6.888 41.0353 6.47733 41.306 5.964 41.474ZM2.352 40.956H4.494C5.09133 40.956 5.55333 40.816 5.88 40.536C6.20667 40.256 6.37 39.8687 6.37 39.374C6.37 38.8793 6.20667 38.492 5.88 38.212C5.55333 37.932 5.082 37.792 4.466 37.792H2.352V40.956ZM4.606 45.45C5.24067 45.45 5.73533 45.3007 6.09 45.002C6.44467 44.7033 6.622 44.288 6.622 43.756C6.622 43.2147 6.43533 42.79 6.062 42.482C5.68867 42.1647 5.18933 42.006 4.564 42.006H2.352V45.45H4.606ZM10.6019 37.582C10.3593 37.582 10.1539 37.498 9.98594 37.33C9.81794 37.162 9.73394 36.9567 9.73394 36.714C9.73394 36.4713 9.81794 36.266 9.98594 36.098C10.1539 35.93 10.3593 35.846 10.6019 35.846C10.8353 35.846 11.0313 35.93 11.1899 36.098C11.3579 36.266 11.4419 36.4713 11.4419 36.714C11.4419 36.9567 11.3579 37.162 11.1899 37.33C11.0313 37.498 10.8353 37.582 10.6019 37.582ZM11.2179 38.828V46.5H9.94394V38.828H11.2179ZM14.9433 36.14V46.5H13.6693V36.14H14.9433ZM18.6686 36.14V46.5H17.3946V36.14H18.6686ZM23.8359 46.626C23.2479 46.626 22.7205 46.528 22.2539 46.332C21.7872 46.1267 21.4185 45.8467 21.1479 45.492C20.8772 45.128 20.7279 44.7127 20.6999 44.246H22.0159C22.0532 44.6287 22.2305 44.9413 22.5479 45.184C22.8745 45.4267 23.2992 45.548 23.8219 45.548C24.3072 45.548 24.6899 45.4407 24.9699 45.226C25.2499 45.0113 25.3899 44.7407 25.3899 44.414C25.3899 44.078 25.2405 43.8307 24.9419 43.672C24.6432 43.504 24.1812 43.3407 23.5559 43.182C22.9865 43.0327 22.5199 42.8833 22.1559 42.734C21.8012 42.5753 21.4932 42.3467 21.2319 42.048C20.9799 41.74 20.8539 41.3387 20.8539 40.844C20.8539 40.452 20.9705 40.0927 21.2039 39.766C21.4372 39.4393 21.7685 39.1827 22.1979 38.996C22.6272 38.8 23.1172 38.702 23.6679 38.702C24.5172 38.702 25.2032 38.9167 25.7259 39.346C26.2485 39.7753 26.5285 40.3633 26.5659 41.11H25.2919C25.2639 40.7087 25.1005 40.3867 24.8019 40.144C24.5125 39.9013 24.1205 39.78 23.6259 39.78C23.1685 39.78 22.8045 39.878 22.5339 40.074C22.2632 40.27 22.1279 40.5267 22.1279 40.844C22.1279 41.096 22.2072 41.306 22.3659 41.474C22.5339 41.6327 22.7392 41.7633 22.9819 41.866C23.2339 41.9593 23.5792 42.0667 24.0179 42.188C24.5685 42.3373 25.0165 42.4867 25.3619 42.636C25.7072 42.776 26.0012 42.9907 26.2439 43.28C26.4959 43.5693 26.6265 43.9473 26.6359 44.414C26.6359 44.834 26.5192 45.212 26.2859 45.548C26.0525 45.884 25.7212 46.15 25.2919 46.346C24.8719 46.5327 24.3865 46.626 23.8359 46.626Z" fill="#113F67"/>
</svg>
