<svg width="18" height="18" viewBox="0 0 18 18" fill="none" xmlns="http://www.w3.org/2000/svg">
<path d="M2.58333 15.4167H10.8333V11.75C10.8333 11.4903 10.9213 11.2727 11.0973 11.0973C11.2733 10.9219 11.4909 10.8339 11.75 10.8333H15.4167V2.58333H2.58333V15.4167ZM2.58333 17.25C2.07917 17.25 1.64772 17.0706 1.289 16.7119C0.930278 16.3532 0.750611 15.9214 0.75 15.4167V2.58333C0.75 2.07917 0.929667 1.64772 1.289 1.289C1.64833 0.930278 2.07978 0.750611 2.58333 0.75H15.4167C15.9208 0.75 16.3526 0.929667 16.7119 1.289C17.0713 1.64833 17.2506 2.07978 17.25 2.58333V10.9938C17.25 11.2382 17.2042 11.4713 17.1125 11.6932C17.0208 11.915 16.891 12.1096 16.7229 12.2771L12.2771 16.7229C12.109 16.891 11.9144 17.0208 11.6932 17.1125C11.4719 17.2042 11.2388 17.25 10.9938 17.25H2.58333ZM8.08333 10.8333H5.33333C5.07361 10.8333 4.85606 10.7453 4.68067 10.5693C4.50528 10.3933 4.41728 10.1758 4.41667 9.91667C4.41606 9.65756 4.50406 9.44 4.68067 9.264C4.85728 9.088 5.07483 9 5.33333 9H8.08333C8.34306 9 8.56092 9.088 8.73692 9.264C8.91292 9.44 9.00061 9.65756 9 9.91667C8.99939 10.1758 8.91139 10.3936 8.736 10.5703C8.56061 10.7469 8.34306 10.8346 8.08333 10.8333ZM12.6667 7.16667H5.33333C5.07361 7.16667 4.85606 7.07867 4.68067 6.90267C4.50528 6.72667 4.41728 6.50911 4.41667 6.25C4.41606 5.99089 4.50406 5.77333 4.68067 5.59733C4.85728 5.42133 5.07483 5.33333 5.33333 5.33333H12.6667C12.9264 5.33333 13.1442 5.42133 13.3202 5.59733C13.4963 5.77333 13.5839 5.99089 13.5833 6.25C13.5827 6.50911 13.4947 6.72697 13.3193 6.90358C13.1439 7.08019 12.9264 7.16789 12.6667 7.16667Z" fill="#113F67"/>
</svg>
