<svg width="31" height="31" viewBox="0 0 31 31" fill="none" xmlns="http://www.w3.org/2000/svg">
<path d="M6.44824 24.25H17.6982V19.25C17.6982 18.8958 17.8182 18.5992 18.0582 18.36C18.2982 18.1208 18.5949 18.0008 18.9482 18H23.9482V6.75H6.44824V24.25ZM6.44824 26.75C5.76074 26.75 5.17241 26.5054 4.68324 26.0163C4.19408 25.5271 3.94908 24.9383 3.94824 24.25V6.75C3.94824 6.0625 4.19324 5.47417 4.68324 4.985C5.17324 4.49583 5.76158 4.25083 6.44824 4.25H23.9482C24.6357 4.25 25.2245 4.495 25.7145 4.985C26.2045 5.475 26.4491 6.06333 26.4482 6.75V18.2188C26.4482 18.5521 26.3857 18.87 26.2607 19.1725C26.1357 19.475 25.9587 19.7404 25.7295 19.9688L19.667 26.0312C19.4378 26.2604 19.1724 26.4375 18.8707 26.5625C18.5691 26.6875 18.2512 26.75 17.917 26.75H6.44824ZM13.9482 18H10.1982C9.84408 18 9.54741 17.88 9.30824 17.64C9.06908 17.4 8.94908 17.1033 8.94824 16.75C8.94741 16.3967 9.06741 16.1 9.30824 15.86C9.54908 15.62 9.84574 15.5 10.1982 15.5H13.9482C14.3024 15.5 14.5995 15.62 14.8395 15.86C15.0795 16.1 15.1991 16.3967 15.1982 16.75C15.1974 17.1033 15.0774 17.4004 14.8382 17.6413C14.5991 17.8821 14.3024 18.0017 13.9482 18ZM20.1982 13H10.1982C9.84408 13 9.54741 12.88 9.30824 12.64C9.06908 12.4 8.94908 12.1033 8.94824 11.75C8.94741 11.3967 9.06741 11.1 9.30824 10.86C9.54908 10.62 9.84574 10.5 10.1982 10.5H20.1982C20.5524 10.5 20.8495 10.62 21.0895 10.86C21.3295 11.1 21.4491 11.3967 21.4482 11.75C21.4474 12.1033 21.3274 12.4004 21.0882 12.6413C20.8491 12.8821 20.5524 13.0017 20.1982 13Z" fill="#8D8D8D"/>
</svg>
