<svg width="26" height="26" viewBox="0 0 26 26" fill="none" xmlns="http://www.w3.org/2000/svg">
<path d="M15.8083 19.0276C15.3918 18.1694 14.8536 17.5448 13.9243 17.9257L12.0911 18.6062C10.6235 19.2866 9.89224 18.6062 9.16099 17.5855L5.86528 10.08C5.45396 9.22179 5.66724 8.41436 6.59653 8.0335L9.16099 7.0128C10.0903 6.63194 9.94302 5.82452 9.52661 4.96632L7.32778 0.873349C6.91138 0.0151459 6.05825 -0.193057 5.12896 0.187802C3.27036 0.959677 1.73169 2.15811 0.736378 3.94054C-0.482372 6.11905 0.127003 9.14561 0.370753 10.4202C0.614503 11.6948 1.46763 13.9241 2.56958 16.2194C3.67153 18.5148 4.63638 20.3175 5.49966 21.3382C6.36294 22.3589 8.42974 25.1519 10.9942 25.7714C13.0965 26.2792 15.3614 25.8526 17.22 25.0858C18.1493 24.705 18.1543 23.8976 17.7379 23.0343L15.8083 19.0276ZM20.9981 5.99718H17.9969L21.9985 9.99874H13V11.9995H21.9985L18.002 15.996H21.0032L26.0051 10.9941L20.9981 5.99718Z" fill="#113F67"/>
</svg>
