<svg width="30" height="30" viewBox="0 0 30 30" fill="none" xmlns="http://www.w3.org/2000/svg">
<path d="M22.2125 11.8276L21.3125 10.9426L23.9375 8.31762H16.5875V7.06762H23.9375L21.3275 4.45637L22.2112 3.55762L26.3462 7.70762L22.2125 11.8276ZM23.6625 25.0001C21.5558 25.0001 19.3958 24.4726 17.1825 23.4176C14.9692 22.3626 12.9092 20.8814 11.0025 18.9739C9.11083 17.0672 7.6375 15.011 6.5825 12.8051C5.5275 10.5993 5 8.44345 5 6.33762C5 5.96262 5.125 5.64595 5.375 5.38762C5.625 5.12928 5.9375 5.00012 6.3125 5.00012H9.40375C9.74375 5.00012 10.0404 5.1072 10.2937 5.32137C10.5471 5.53553 10.7183 5.81012 10.8075 6.14512L11.4275 9.12512C11.4858 9.47512 11.4754 9.78053 11.3962 10.0414C11.3171 10.3022 11.1783 10.516 10.98 10.6826L8.2375 13.2401C8.75083 14.171 9.31792 15.036 9.93875 15.8351C10.5596 16.6343 11.2221 17.3914 11.9263 18.1064C12.6513 18.8314 13.4321 19.5064 14.2688 20.1314C15.1054 20.7555 16.0238 21.3447 17.0238 21.8989L19.6975 19.1776C19.9008 18.9585 20.1296 18.8139 20.3837 18.7439C20.6371 18.6747 20.9179 18.661 21.2263 18.7026L23.855 19.2401C24.195 19.3235 24.4708 19.4947 24.6825 19.7539C24.8942 20.013 25 20.3097 25 20.6439V23.6876C25 24.0626 24.8708 24.3751 24.6125 24.6251C24.3542 24.8751 24.0375 25.0001 23.6625 25.0001ZM7.6525 12.0676L10.0525 9.86137C10.1317 9.7972 10.1833 9.70887 10.2075 9.59637C10.2325 9.48387 10.2283 9.3797 10.195 9.28387L9.64125 6.63387C9.60875 6.50637 9.5525 6.41053 9.4725 6.34637C9.3925 6.2822 9.28792 6.25012 9.15875 6.25012H6.59375C6.49792 6.25012 6.41792 6.2822 6.35375 6.34637C6.28958 6.41053 6.2575 6.49053 6.2575 6.58637C6.28167 7.44053 6.41542 8.3322 6.65875 9.26137C6.90208 10.1905 7.23292 11.126 7.65125 12.0676M18.2137 22.4851C19.0588 22.9035 19.9588 23.213 20.9138 23.4139C21.8704 23.6139 22.7038 23.721 23.4138 23.7351C23.5096 23.7351 23.5896 23.703 23.6538 23.6389C23.7179 23.5747 23.75 23.4951 23.75 23.4001V20.8901C23.75 20.7626 23.7179 20.6585 23.6538 20.5776C23.5896 20.4976 23.4938 20.4418 23.3663 20.4101L21.0538 19.9364C20.9571 19.9039 20.8725 19.8997 20.8 19.9239C20.7283 19.9489 20.6525 20.0009 20.5725 20.0801L18.2137 22.4851Z" fill="#113F67"/>
</svg>
