<svg width="80" height="80" viewBox="0 0 80 80" fill="none" xmlns="http://www.w3.org/2000/svg">
<path d="M65 17.5H56.3373L52.078 11.1125C51.85 10.7705 51.541 10.49 51.1783 10.296C50.816 10.1019 50.411 10.0002 50 10H30C29.5888 10.0002 29.1841 10.1019 28.8216 10.296C28.4591 10.49 28.1501 10.7705 27.9219 11.1125L23.6594 17.5H15C13.0109 17.5 11.1032 18.2902 9.6967 19.6967C8.29017 21.1032 7.5 23.0109 7.5 25V60C7.5 61.989 8.29017 63.8967 9.6967 65.3033C11.1032 66.7097 13.0109 67.5 15 67.5H65C66.989 67.5 68.8967 66.7097 70.3033 65.3033C71.7097 63.8967 72.5 61.989 72.5 60V25C72.5 23.0109 71.7097 21.1032 70.3033 19.6967C68.8967 18.2902 66.989 17.5 65 17.5ZM67.5 60C67.5 60.663 67.2367 61.299 66.7677 61.7677C66.299 62.2367 65.663 62.5 65 62.5H15C14.337 62.5 13.7011 62.2367 13.2322 61.7677C12.7634 61.299 12.5 60.663 12.5 60V25C12.5 24.337 12.7634 23.7011 13.2322 23.2322C13.7011 22.7634 14.337 22.5 15 22.5H25C25.4117 22.5003 25.8171 22.3989 26.1802 22.2048C26.5432 22.0107 26.8528 21.73 27.0813 21.3875L31.3375 15H48.6593L52.9187 21.3875C53.1473 21.73 53.4567 22.0107 53.82 22.2048C54.183 22.3989 54.5883 22.5003 55 22.5H65C65.663 22.5 66.299 22.7634 66.7677 23.2322C67.2367 23.7011 67.5 24.337 67.5 25V60ZM40 27.5C37.2807 27.5 34.622 28.3064 32.3609 29.8173C30.0997 31.3282 28.3374 33.4757 27.2967 35.988C26.256 38.5007 25.9837 41.2653 26.5142 43.9323C27.0448 46.5997 28.3543 49.0497 30.2773 50.9727C32.2003 52.8957 34.6503 54.2053 37.3177 54.7357C39.9847 55.2663 42.7493 54.994 45.262 53.9533C47.7743 52.9127 49.922 51.1503 51.4327 48.889C52.9437 46.628 53.75 43.9693 53.75 41.25C53.746 37.6047 52.296 34.1097 49.718 31.5318C47.1403 28.9541 43.6453 27.5041 40 27.5ZM40 50C38.2693 50 36.5777 49.4867 35.1387 48.5253C33.6997 47.564 32.5783 46.1973 31.9161 44.5983C31.2538 42.9997 31.0805 41.2403 31.4181 39.543C31.7557 37.8457 32.5891 36.2867 33.8127 35.0627C35.0367 33.839 36.5957 33.0057 38.293 32.6681C39.9903 32.3305 41.7497 32.5038 43.3483 33.1661C44.9473 33.8283 46.314 34.9497 47.2753 36.3887C48.2367 37.8277 48.75 39.5193 48.75 41.25C48.75 43.5707 47.828 45.7963 46.1873 47.4373C44.5463 49.078 42.3207 50 40 50Z" fill="#005581"/>
</svg>
