<svg width="24" height="24" viewBox="0 0 24 24" fill="none" xmlns="http://www.w3.org/2000/svg">
<path fill-rule="evenodd" clip-rule="evenodd" d="M3.25 0.75C2.58696 0.75 1.95107 1.01339 1.48223 1.48223C1.01339 1.95107 0.75 2.58696 0.75 3.25V20.75C0.75 21.413 1.01339 22.0489 1.48223 22.5178C1.95107 22.9866 2.58696 23.25 3.25 23.25H20.75C21.413 23.25 22.0489 22.9866 22.5178 22.5178C22.9866 22.0489 23.25 21.413 23.25 20.75V3.25C23.25 2.58696 22.9866 1.95107 22.5178 1.48223C22.0489 1.01339 21.413 0.75 20.75 0.75H3.25ZM18.1875 9.245C18.4221 9.01061 18.5539 8.69266 18.554 8.36107C18.5541 8.02948 18.4225 7.71143 18.1881 7.47688C17.9537 7.24232 17.6358 7.11049 17.3042 7.11037C16.9726 7.11026 16.6546 7.24186 16.42 7.47625L10.2325 13.6638L7.58125 11.0125C7.46519 10.8964 7.3274 10.8042 7.17573 10.7413C7.02407 10.6785 6.8615 10.6461 6.69732 10.646C6.36573 10.6459 6.04768 10.7775 5.81312 11.0119C5.57857 11.2463 5.44674 11.5642 5.44662 11.8958C5.4465 12.2274 5.57811 12.5454 5.8125 12.78L9.26 16.2275C9.38769 16.3552 9.5393 16.4566 9.70616 16.5257C9.87303 16.5949 10.0519 16.6305 10.2325 16.6305C10.4131 16.6305 10.592 16.5949 10.7588 16.5257C10.9257 16.4566 11.0773 16.3552 11.205 16.2275L18.1875 9.245Z" fill="#113F67"/>
</svg>
