<svg width="54" height="58" viewBox="0 0 54 58" fill="none" xmlns="http://www.w3.org/2000/svg">
<path d="M51.0625 9.125H40.125V6.9375C40.125 5.19701 39.4335 3.52783 38.2029 2.29711C36.9721 1.0664 35.3029 0.375 33.5625 0.375H20.4375C18.697 0.375 17.0278 1.0664 15.7971 2.29711C14.5664 3.52783 13.875 5.19701 13.875 6.9375V9.125H2.9375C2.35735 9.125 1.80093 9.35547 1.3907 9.7657C0.980475 10.1759 0.75 10.7323 0.75 11.3125C0.75 11.8927 0.980475 12.4491 1.3907 12.8593C1.80093 13.2695 2.35735 13.5 2.9375 13.5H5.125V52.875C5.125 54.0353 5.58595 55.1482 6.40641 55.9687C7.22687 56.7892 8.33969 57.25 9.5 57.25H44.5C45.6603 57.25 46.7732 56.7892 47.5937 55.9687C48.4142 55.1482 48.875 54.0353 48.875 52.875V13.5H51.0625C51.6426 13.5 52.1991 13.2695 52.6092 12.8593C53.0196 12.4491 53.25 11.8927 53.25 11.3125C53.25 10.7323 53.0196 10.1759 52.6092 9.7657C52.1991 9.35547 51.6426 9.125 51.0625 9.125ZM18.25 6.9375C18.25 6.35735 18.4805 5.80093 18.8907 5.3907C19.3009 4.98048 19.8573 4.75 20.4375 4.75H33.5625C34.1426 4.75 34.6991 4.98048 35.1092 5.3907C35.5196 5.80093 35.75 6.35735 35.75 6.9375V9.125H18.25V6.9375ZM44.5 52.875H9.5V13.5H44.5V52.875ZM22.625 24.4375V41.9375C22.625 42.5176 22.3946 43.0741 21.9842 43.4842C21.5741 43.8946 21.0177 44.125 20.4375 44.125C19.8573 44.125 19.3009 43.8946 18.8907 43.4842C18.4805 43.0741 18.25 42.5176 18.25 41.9375V24.4375C18.25 23.8573 18.4805 23.3009 18.8907 22.8907C19.3009 22.4805 19.8573 22.25 20.4375 22.25C21.0177 22.25 21.5741 22.4805 21.9842 22.8907C22.3946 23.3009 22.625 23.8573 22.625 24.4375ZM35.75 24.4375V41.9375C35.75 42.5176 35.5196 43.0741 35.1092 43.4842C34.6991 43.8946 34.1426 44.125 33.5625 44.125C32.9824 44.125 32.4259 43.8946 32.0158 43.4842C31.6054 43.0741 31.375 42.5176 31.375 41.9375V24.4375C31.375 23.8573 31.6054 23.3009 32.0158 22.8907C32.4259 22.4805 32.9824 22.25 33.5625 22.25C34.1426 22.25 34.6991 22.4805 35.1092 22.8907C35.5196 23.3009 35.75 23.8573 35.75 24.4375Z" fill="#ED6C7B"/>
</svg>
