<svg width="40" height="40" viewBox="0 0 40 40" fill="none" xmlns="http://www.w3.org/2000/svg">
<path d="M22.5 26.6665C22.5 27.3295 22.2366 27.9654 21.7678 28.4343C21.2989 28.9031 20.663 29.1665 20 29.1665C19.337 29.1665 18.7011 28.9031 18.2322 28.4343C17.7634 27.9654 17.5 27.3295 17.5 26.6665C17.5 26.0035 17.7634 25.3676 18.2322 24.8987C18.7011 24.4299 19.337 24.1665 20 24.1665C20.663 24.1665 21.2989 24.4299 21.7678 24.8987C22.2366 25.3676 22.5 26.0035 22.5 26.6665Z" fill="#113F67"/>
<path d="M23.9117 1.1001L29.2117 8.52677L32.7067 7.3351L35.8967 16.6668H37.5V36.6668H2.5V16.6668H3.35V16.6501L4.43 16.6601L23.9117 1.1001ZM15.6617 16.6668H32.375L30.6467 11.6118L28.11 12.4234L15.6617 16.6668ZM13.065 14.0284L25.9167 9.6501L23.2433 5.9001L13.065 14.0284ZM9.16667 20.0001H5.83333V23.3334C6.71739 23.3334 7.56523 22.9822 8.19036 22.3571C8.81548 21.732 9.16667 20.8842 9.16667 20.0001ZM25.8333 26.6668C25.8333 25.9007 25.6824 25.1422 25.3893 24.4344C25.0961 23.7267 24.6665 23.0837 24.1248 22.542C23.5831 22.0003 22.9401 21.5706 22.2323 21.2775C21.5246 20.9843 20.766 20.8334 20 20.8334C19.234 20.8334 18.4754 20.9843 17.7677 21.2775C17.0599 21.5706 16.4169 22.0003 15.8752 22.542C15.3335 23.0837 14.9039 23.7267 14.6107 24.4344C14.3175 25.1422 14.1667 25.9007 14.1667 26.6668C14.1667 28.2139 14.7812 29.6976 15.8752 30.7916C16.9692 31.8855 18.4529 32.5001 20 32.5001C21.5471 32.5001 23.0308 31.8855 24.1248 30.7916C25.2188 29.6976 25.8333 28.2139 25.8333 26.6668ZM34.1667 33.3334V30.0001C33.2826 30.0001 32.4348 30.3513 31.8096 30.9764C31.1845 31.6015 30.8333 32.4494 30.8333 33.3334H34.1667ZM30.8333 20.0001C30.8333 20.8842 31.1845 21.732 31.8096 22.3571C32.4348 22.9822 33.2826 23.3334 34.1667 23.3334V20.0001H30.8333ZM5.83333 33.3334H9.16667C9.16667 32.4494 8.81548 31.6015 8.19036 30.9764C7.56523 30.3513 6.71739 30.0001 5.83333 30.0001V33.3334Z" fill="#113F67"/>
</svg>
