<svg width="40" height="40" viewBox="0 0 40 40" fill="none" xmlns="http://www.w3.org/2000/svg">
<path fill-rule="evenodd" clip-rule="evenodd" d="M29.584 24.1665C28.5894 24.1665 27.6356 24.5616 26.9323 25.2649C26.2291 25.9681 25.834 26.922 25.834 27.9165C25.834 28.9111 26.2291 29.8649 26.9323 30.5682C27.6356 31.2714 28.5894 31.6665 29.584 31.6665C30.5785 31.6665 31.5324 31.2714 32.2356 30.5682C32.9389 29.8649 33.334 28.9111 33.334 27.9165C33.334 26.922 32.9389 25.9681 32.2356 25.2649C31.5324 24.5616 30.5785 24.1665 29.584 24.1665ZM23.334 27.9165C23.3343 26.9421 23.5624 25.9812 24.0002 25.1106C24.438 24.24 25.0733 23.4838 25.8554 22.9025C26.6374 22.3211 27.5446 21.9307 28.5044 21.7624C29.4642 21.5941 30.4501 21.6525 31.3833 21.9331C32.3166 22.2136 33.1712 22.7085 33.8791 23.3782C34.587 24.0478 35.1285 24.8738 35.4604 25.79C35.7922 26.7062 35.9053 27.6873 35.7904 28.655C35.6756 29.6227 35.3361 30.5501 34.799 31.3632L36.3007 32.8665C36.4235 32.981 36.522 33.119 36.5903 33.2723C36.6586 33.4256 36.6953 33.5912 36.6983 33.759C36.7013 33.9268 36.6704 34.0936 36.6075 34.2492C36.5447 34.4048 36.4511 34.5462 36.3324 34.6649C36.2137 34.7836 36.0723 34.8772 35.9166 34.9401C35.761 35.0029 35.5943 35.0338 35.4264 35.0309C35.2586 35.0279 35.0931 34.9912 34.9398 34.9228C34.7864 34.8545 34.6484 34.756 34.534 34.6332L33.0307 33.1315C32.0886 33.7543 30.9954 34.1102 29.8673 34.1614C28.7391 34.2126 27.6182 33.9571 26.6236 33.4222C25.629 32.8873 24.798 32.093 24.2187 31.1235C23.6395 30.1541 23.3338 29.0458 23.334 27.9165Z" fill="#113F67"/>
<path d="M16.6658 6.6665H23.3324C29.6174 6.6665 32.7608 6.6665 34.7124 8.61984C36.1191 10.0248 36.5124 12.0482 36.6224 15.4165H3.37578C3.48578 12.0482 3.87911 10.0248 5.28578 8.61984C7.23745 6.6665 10.3808 6.6665 16.6658 6.6665ZM16.6658 33.3332H22.7108C22.0014 32.4186 21.4806 31.3723 21.1784 30.2551C20.8762 29.1378 20.7987 27.9716 20.9503 26.8242C21.102 25.6767 21.4798 24.5707 22.0618 23.5703C22.6439 22.5699 23.4186 21.6949 24.3412 20.996C25.2638 20.297 26.3159 19.7881 27.4366 19.4986C28.5572 19.2092 29.7242 19.1449 30.8698 19.3096C32.0155 19.4743 33.1171 19.8646 34.1108 20.458C35.1046 21.0514 35.9707 21.836 36.6591 22.7665C36.6636 21.9221 36.6658 20.9998 36.6658 19.9998C36.6658 19.2643 36.6647 18.5698 36.6624 17.9165H3.33578C3.33245 18.5698 3.33134 19.2643 3.33245 19.9998C3.33245 26.2848 3.33245 29.4282 5.28578 31.3798C7.23911 33.3315 10.3808 33.3332 16.6658 33.3332Z" fill="#113F67"/>
<path d="M8.75 26.6665C8.75 26.335 8.8817 26.017 9.11612 25.7826C9.35054 25.5482 9.66848 25.4165 10 25.4165H16.6667C16.9982 25.4165 17.3161 25.5482 17.5505 25.7826C17.785 26.017 17.9167 26.335 17.9167 26.6665C17.9167 26.998 17.785 27.316 17.5505 27.5504C17.3161 27.7848 16.9982 27.9165 16.6667 27.9165H10C9.66848 27.9165 9.35054 27.7848 9.11612 27.5504C8.8817 27.316 8.75 26.998 8.75 26.6665Z" fill="#113F67"/>
</svg>
