<svg width="80" height="80" viewBox="0 0 80 80" fill="none" xmlns="http://www.w3.org/2000/svg">
<path d="M66.7687 25.7313L49.2687 8.23127C49.0363 7.99917 48.7607 7.81513 48.457 7.68967C48.1537 7.5642 47.8283 7.49973 47.5 7.5H17.5C16.1739 7.5 14.9021 8.0268 13.9645 8.96447C13.0268 9.90213 12.5 11.1739 12.5 12.5V67.5C12.5 68.826 13.0268 70.098 13.9645 71.0357C14.9021 71.9733 16.1739 72.5 17.5 72.5H62.5C63.826 72.5 65.098 71.9733 66.0357 71.0357C66.9733 70.098 67.5 68.826 67.5 67.5V27.5C67.5003 27.1716 67.4357 26.8464 67.3103 26.5429C67.185 26.2394 67.001 25.9636 66.7687 25.7313ZM50 16.0344L58.9657 25H50V16.0344ZM62.5 67.5H17.5V12.5H45V27.5C45 28.163 45.2633 28.7989 45.7323 29.2678C46.201 29.7366 46.837 30 47.5 30H62.5V67.5Z" fill="#005581"/>
</svg>
