<svg width="80" height="80" viewBox="0 0 80 80" fill="none" xmlns="http://www.w3.org/2000/svg">
<path d="M65 10H25C23.6739 10 22.4021 10.5268 21.4645 11.4645C20.5268 12.4021 20 13.6739 20 15V20H15C13.6739 20 12.4021 20.5268 11.4645 21.4645C10.5268 22.4021 10 23.6739 10 25V65C10 66.326 10.5268 67.598 11.4645 68.5357C12.4021 69.4733 13.6739 70 15 70H55C56.326 70 57.598 69.4733 58.5357 68.5357C59.4733 67.598 60 66.326 60 65V60H65C66.326 60 67.598 59.4733 68.5357 58.5357C69.4733 57.598 70 56.326 70 55V15C70 13.6739 69.4733 12.4021 68.5357 11.4645C67.598 10.5268 66.326 10 65 10ZM25 15H65V36.6813L59.7813 31.4625C58.8437 30.5255 57.5723 29.9992 56.247 29.9992C54.9213 29.9992 53.65 30.5255 52.7123 31.4625L29.1781 55H25V15ZM55 65H15V25H20V55C20 56.326 20.5268 57.598 21.4645 58.5357C22.4021 59.4733 23.6739 60 25 60H55V65ZM65 55H36.25L56.25 35L65 43.75V55ZM37.5 35C38.9833 35 40.4333 34.56 41.6667 33.736C42.9 32.9119 43.8613 31.7406 44.429 30.3701C44.9967 28.9997 45.1453 27.4917 44.856 26.0368C44.5667 24.582 43.8523 23.2456 42.8033 22.1967C41.7543 21.1478 40.418 20.4335 38.9633 20.1441C37.5083 19.8547 36.0003 20.0032 34.63 20.5709C33.2594 21.1386 32.0881 22.0999 31.264 23.3332C30.4399 24.5666 30 26.0166 30 27.5C30 29.4891 30.7902 31.3968 32.1967 32.8033C33.6033 34.2097 35.511 35 37.5 35ZM37.5 25C37.9943 25 38.4777 25.1466 38.889 25.4213C39.3 25.696 39.6203 26.0865 39.8097 26.5433C39.999 27.0001 40.0483 27.5028 39.952 27.9877C39.8553 28.4727 39.6173 28.9181 39.2677 29.2678C38.918 29.6174 38.4727 29.8555 37.9877 29.952C37.5027 30.0484 37 29.9989 36.5433 29.8097C36.0863 29.6205 35.696 29.3 35.4213 28.8889C35.1467 28.4778 35 27.9945 35 27.5C35 26.837 35.2633 26.2011 35.7323 25.7322C36.201 25.2634 36.837 25 37.5 25Z" fill="#005581"/>
</svg>
