<svg width="31" height="31" viewBox="0 0 31 31" fill="none" xmlns="http://www.w3.org/2000/svg">
<g clip-path="url(#clip0_520_448)">
<path d="M15.5 7.375C16.6603 7.375 17.7731 7.83594 18.5936 8.65641C19.4141 9.47688 19.875 10.5897 19.875 11.75C19.875 12.9103 19.4141 14.0231 18.5936 14.8436C17.7731 15.6641 16.6603 16.125 15.5 16.125C14.3397 16.125 13.2269 15.6641 12.4064 14.8436C11.5859 14.0231 11.125 12.9103 11.125 11.75C11.125 10.5897 11.5859 9.47688 12.4064 8.65641C13.2269 7.83594 14.3397 7.375 15.5 7.375ZM6.75 10.5C7.45 10.5 8.1 10.6875 8.6625 11.025C8.475 12.8125 9 14.5875 10.075 15.975C9.45 17.175 8.2 18 6.75 18C5.75544 18 4.80161 17.6049 4.09835 16.9017C3.39509 16.1984 3 15.2446 3 14.25C3 13.2554 3.39509 12.3016 4.09835 11.5983C4.80161 10.8951 5.75544 10.5 6.75 10.5ZM24.25 10.5C25.2446 10.5 26.1984 10.8951 26.9017 11.5983C27.6049 12.3016 28 13.2554 28 14.25C28 15.2446 27.6049 16.1984 26.9017 16.9017C26.1984 17.6049 25.2446 18 24.25 18C22.8 18 21.55 17.175 20.925 15.975C22.0144 14.5678 22.5202 12.7952 22.3375 11.025C22.9 10.6875 23.55 10.5 24.25 10.5ZM7.375 23.3125C7.375 20.725 11.0125 18.625 15.5 18.625C19.9875 18.625 23.625 20.725 23.625 23.3125V25.5H7.375V23.3125ZM0.5 25.5V23.625C0.5 21.8875 2.8625 20.425 6.0625 20C5.325 20.85 4.875 22.025 4.875 23.3125V25.5H0.5ZM30.5 25.5H26.125V23.3125C26.125 22.025 25.675 20.85 24.9375 20C28.1375 20.425 30.5 21.8875 30.5 23.625V25.5Z" fill="#005680"/>
</g>
<defs>
<clipPath id="clip0_520_448">
<rect width="30" height="30" fill="white" transform="translate(0.5 0.5)"/>
</clipPath>
</defs>
</svg>
