<svg width="20" height="20" viewBox="0 0 20 20" fill="none" xmlns="http://www.w3.org/2000/svg">
<g clip-path="url(#clip0_447_2724)">
<path d="M8.3335 7.49967C8.3335 7.01053 8.51594 6.6977 8.75546 6.49447C9.01309 6.27588 9.3863 6.14551 9.79183 6.14551C10.1974 6.14551 10.5706 6.27588 10.8282 6.49447C11.0677 6.6977 11.2502 7.01053 11.2502 7.49967C11.2502 7.86398 11.1643 8.06623 11.0646 8.21581C10.9483 8.39032 10.7952 8.52793 10.5363 8.76065L10.4844 8.80735C10.218 9.04705 9.86764 9.37109 9.60047 9.84308C9.32514 10.3295 9.16683 10.9173 9.16683 11.6663C9.16683 12.1266 9.53993 12.4997 10.0002 12.4997C10.4604 12.4997 10.8335 12.1266 10.8335 11.6663C10.8335 11.1654 10.9356 10.8678 11.0509 10.6641C11.1744 10.446 11.3448 10.2752 11.5993 10.0462C11.6222 10.0256 11.6464 10.004 11.6715 9.98158C11.8993 9.77859 12.2112 9.50055 12.4514 9.14031C12.7423 8.70395 12.9168 8.17704 12.9168 7.49967C12.9168 6.53049 12.5264 5.74956 11.9065 5.22363C11.3048 4.71306 10.5321 4.47884 9.79183 4.47884C9.05153 4.47884 8.2789 4.71306 7.67716 5.22363C7.0573 5.74956 6.66683 6.53049 6.66683 7.49967C6.66683 7.95991 7.03993 8.33301 7.50016 8.33301C7.9604 8.33301 8.3335 7.95991 8.3335 7.49967Z" fill="#5C666E"/>
<path d="M10.6251 15.5594C10.9347 15.2189 10.9096 14.6918 10.5691 14.3822C10.2285 14.0726 9.70149 14.0977 9.39189 14.4383L9.38356 14.4474C9.07396 14.788 9.09905 15.315 9.43959 15.6246C9.78013 15.9342 10.3072 15.9091 10.6168 15.5686L10.6251 15.5594Z" fill="#5C666E"/>
<path fill-rule="evenodd" clip-rule="evenodd" d="M10.0002 0.833008C4.93743 0.833008 0.833496 4.93694 0.833496 9.99967C0.833496 15.0624 4.93743 19.1663 10.0002 19.1663C15.0629 19.1663 19.1668 15.0624 19.1668 9.99967C19.1668 4.93694 15.0629 0.833008 10.0002 0.833008ZM2.50016 9.99967C2.50016 5.85741 5.8579 2.49967 10.0002 2.49967C14.1424 2.49967 17.5002 5.85741 17.5002 9.99967C17.5002 14.1419 14.1424 17.4997 10.0002 17.4997C5.8579 17.4997 2.50016 14.1419 2.50016 9.99967Z" fill="#5C666E"/>
</g>
<defs>
<clipPath id="clip0_447_2724">
<rect width="20" height="20" fill="white"/>
</clipPath>
</defs>
</svg>
