<svg width="22" height="22" viewBox="0 0 22 22" fill="none" xmlns="http://www.w3.org/2000/svg">
<path d="M19.2499 9.27667H13.0349L15.5465 6.69167C13.044 4.21667 8.99236 4.125 6.48986 6.6C5.89531 7.18721 5.42326 7.88661 5.10107 8.65765C4.77889 9.42869 4.61299 10.256 4.61299 11.0917C4.61299 11.9273 4.77889 12.7546 5.10107 13.5257C5.42326 14.2967 5.89531 14.9961 6.48986 15.5833C8.99236 18.0583 13.044 18.0583 15.5465 15.5833C16.7932 14.3458 17.4165 12.9067 17.4165 11.0917H19.2499C19.2499 12.9067 18.4432 15.2625 16.8299 16.8575C13.6124 20.0475 8.38736 20.0475 5.16986 16.8575C1.96153 13.6767 1.93403 8.50667 5.15153 5.32583C6.6942 3.79752 8.77791 2.94012 10.9494 2.94012C13.121 2.94012 15.2047 3.79752 16.7474 5.32583L19.2499 2.75V9.27667ZM11.4582 7.33333V11.2292L14.6665 13.1358L14.0065 14.245L10.0832 11.9167V7.33333H11.4582Z" fill="white"/>
</svg>
