<svg width="53" height="52" viewBox="0 0 53 52" fill="none" xmlns="http://www.w3.org/2000/svg">
<path d="M44.6486 8.11976C39.8997 3.16552 33.3283 0.49588 26.5001 0.598558C19.672 0.49588 13.1263 3.16552 8.37737 8.11976C3.39746 12.8686 0.727813 19.4401 0.830492 26.2682C0.727813 33.0963 3.39746 39.6421 8.3517 44.391C13.1006 49.3709 19.672 52.0405 26.5001 51.9378C33.3283 52.0405 39.874 49.3709 44.6229 44.4166C49.6028 39.6678 52.2725 33.0963 52.1698 26.2682C52.2725 19.4401 49.6028 12.8686 44.6486 8.11976ZM39.335 26.2682V41.67H30.3506V28.8352H22.6497V41.67H13.6653V26.2682H8.53138L26.5001 8.29945L45.7524 26.2682H39.335Z" fill="#113F67"/>
</svg>
