<svg width="30" height="19" viewBox="0 0 30 19" fill="none" xmlns="http://www.w3.org/2000/svg">
<path d="M15 0.875C16.1603 0.875 17.2731 1.33594 18.0936 2.15641C18.9141 2.97688 19.375 4.08968 19.375 5.25C19.375 6.41032 18.9141 7.52312 18.0936 8.34359C17.2731 9.16406 16.1603 9.625 15 9.625C13.8397 9.625 12.7269 9.16406 11.9064 8.34359C11.0859 7.52312 10.625 6.41032 10.625 5.25C10.625 4.08968 11.0859 2.97688 11.9064 2.15641C12.7269 1.33594 13.8397 0.875 15 0.875ZM6.25 4C6.95 4 7.6 4.1875 8.1625 4.525C7.975 6.3125 8.5 8.0875 9.575 9.475C8.95 10.675 7.7 11.5 6.25 11.5C5.25544 11.5 4.30161 11.1049 3.59835 10.4017C2.89509 9.69839 2.5 8.74456 2.5 7.75C2.5 6.75544 2.89509 5.80161 3.59835 5.09835C4.30161 4.39509 5.25544 4 6.25 4ZM23.75 4C24.7446 4 25.6984 4.39509 26.4017 5.09835C27.1049 5.80161 27.5 6.75544 27.5 7.75C27.5 8.74456 27.1049 9.69839 26.4017 10.4017C25.6984 11.1049 24.7446 11.5 23.75 11.5C22.3 11.5 21.05 10.675 20.425 9.475C21.5144 8.06779 22.0202 6.2952 21.8375 4.525C22.4 4.1875 23.05 4 23.75 4ZM6.875 16.8125C6.875 14.225 10.5125 12.125 15 12.125C19.4875 12.125 23.125 14.225 23.125 16.8125V19H6.875V16.8125ZM0 19V17.125C0 15.3875 2.3625 13.925 5.5625 13.5C4.825 14.35 4.375 15.525 4.375 16.8125V19H0ZM30 19H25.625V16.8125C25.625 15.525 25.175 14.35 24.4375 13.5C27.6375 13.925 30 15.3875 30 17.125V19Z" fill="white"/>
</svg>
