<svg width="270" height="42" viewBox="0 0 270 42" fill="none" xmlns="http://www.w3.org/2000/svg">
<rect width="270" height="42" rx="8" fill="#005680"/>
<path d="M26.6665 15.5H17.4998L12.9165 21V23.75H14.7498C14.7498 24.4793 15.0396 25.1788 15.5553 25.6945C16.071 26.2103 16.7705 26.5 17.4998 26.5C18.2292 26.5 18.9287 26.2103 19.4444 25.6945C19.9601 25.1788 20.2498 24.4793 20.2498 23.75H25.7498C25.7498 24.4793 26.0396 25.1788 26.5553 25.6945C27.071 26.2103 27.7705 26.5 28.4998 26.5C29.2292 26.5 29.9287 26.2103 30.4444 25.6945C30.9601 25.1788 31.2498 24.4793 31.2498 23.75H33.0832V21C33.0832 19.9825 32.2673 19.1667 31.2498 19.1667H29.4165L26.6665 15.5ZM17.9582 16.875H21.6248V19.1667H16.1248L17.9582 16.875ZM22.9998 16.875H26.2082L28.0048 19.1667H22.9998V16.875ZM17.4998 22.375C17.8645 22.375 18.2142 22.5199 18.4721 22.7777C18.73 23.0356 18.8748 23.3853 18.8748 23.75C18.8748 24.1147 18.73 24.4644 18.4721 24.7223C18.2142 24.9801 17.8645 25.125 17.4998 25.125C17.1352 25.125 16.7854 24.9801 16.5276 24.7223C16.2697 24.4644 16.1248 24.1147 16.1248 23.75C16.1248 23.3853 16.2697 23.0356 16.5276 22.7777C16.7854 22.5199 17.1352 22.375 17.4998 22.375ZM28.4998 22.375C28.8645 22.375 29.2142 22.5199 29.4721 22.7777C29.73 23.0356 29.8748 23.3853 29.8748 23.75C29.8748 24.1147 29.73 24.4644 29.4721 24.7223C29.2142 24.9801 28.8645 25.125 28.4998 25.125C28.1352 25.125 27.7854 24.9801 27.5276 24.7223C27.2697 24.4644 27.1248 24.1147 27.1248 23.75C27.1248 23.3853 27.2697 23.0356 27.5276 22.7777C27.7854 22.5199 28.1352 22.375 28.4998 22.375Z" fill="white"/>
<path d="M57.298 16.27V26H55.702V19.336L52.734 26H51.628L48.646 19.336V26H47.05V16.27H48.772L52.188 23.9L55.59 16.27H57.298ZM58.5837 22.108C58.5837 21.3333 58.7424 20.6473 59.0597 20.05C59.3864 19.4527 59.825 18.9907 60.3757 18.664C60.9357 18.328 61.5517 18.16 62.2237 18.16C62.8304 18.16 63.3577 18.2813 63.8057 18.524C64.263 18.7573 64.627 19.0513 64.8977 19.406V18.286H66.5077V26H64.8977V24.852C64.627 25.216 64.2584 25.5193 63.7917 25.762C63.325 26.0047 62.793 26.126 62.1957 26.126C61.533 26.126 60.9264 25.958 60.3757 25.622C59.825 25.2767 59.3864 24.8007 59.0597 24.194C58.7424 23.578 58.5837 22.8827 58.5837 22.108ZM64.8977 22.136C64.8977 21.604 64.7857 21.142 64.5617 20.75C64.347 20.358 64.0624 20.0593 63.7077 19.854C63.353 19.6487 62.9704 19.546 62.5597 19.546C62.149 19.546 61.7664 19.6487 61.4117 19.854C61.057 20.05 60.7677 20.344 60.5437 20.736C60.329 21.1187 60.2217 21.576 60.2217 22.108C60.2217 22.64 60.329 23.1067 60.5437 23.508C60.7677 23.9093 61.057 24.2173 61.4117 24.432C61.7757 24.6373 62.1584 24.74 62.5597 24.74C62.9704 24.74 63.353 24.6373 63.7077 24.432C64.0624 24.2267 64.347 23.928 64.5617 23.536C64.7857 23.1347 64.8977 22.668 64.8977 22.136ZM72.216 18.16C72.8227 18.16 73.364 18.286 73.84 18.538C74.3253 18.79 74.7033 19.1633 74.974 19.658C75.2447 20.1527 75.38 20.75 75.38 21.45V26H73.798V21.688C73.798 20.9973 73.6253 20.47 73.28 20.106C72.9347 19.7327 72.4633 19.546 71.866 19.546C71.2687 19.546 70.7927 19.7327 70.438 20.106C70.0927 20.47 69.92 20.9973 69.92 21.688V26H68.324V18.286H69.92V19.168C70.1813 18.8507 70.5127 18.6033 70.914 18.426C71.3247 18.2487 71.7587 18.16 72.216 18.16ZM76.6038 22.108C76.6038 21.3333 76.7624 20.6473 77.0798 20.05C77.4064 19.4527 77.8451 18.9907 78.3958 18.664C78.9558 18.328 79.5718 18.16 80.2438 18.16C80.8504 18.16 81.3778 18.2813 81.8258 18.524C82.2831 18.7573 82.6471 19.0513 82.9178 19.406V18.286H84.5278V26H82.9178V24.852C82.6471 25.216 82.2784 25.5193 81.8118 25.762C81.3451 26.0047 80.8131 26.126 80.2158 26.126C79.5531 26.126 78.9464 25.958 78.3958 25.622C77.8451 25.2767 77.4064 24.8007 77.0798 24.194C76.7624 23.578 76.6038 22.8827 76.6038 22.108ZM82.9178 22.136C82.9178 21.604 82.8058 21.142 82.5818 20.75C82.3671 20.358 82.0824 20.0593 81.7278 19.854C81.3731 19.6487 80.9904 19.546 80.5798 19.546C80.1691 19.546 79.7864 19.6487 79.4318 19.854C79.0771 20.05 78.7878 20.344 78.5638 20.736C78.3491 21.1187 78.2418 21.576 78.2418 22.108C78.2418 22.64 78.3491 23.1067 78.5638 23.508C78.7878 23.9093 79.0771 24.2173 79.4318 24.432C79.7958 24.6373 80.1784 24.74 80.5798 24.74C80.9904 24.74 81.3731 24.6373 81.7278 24.432C82.0824 24.2267 82.3671 23.928 82.5818 23.536C82.8058 23.1347 82.9178 22.668 82.9178 22.136ZM89.4521 18.16C90.0494 18.16 90.5767 18.2813 91.0341 18.524C91.5007 18.7573 91.8647 19.0513 92.1261 19.406V18.286H93.7361V26.126C93.7361 26.8353 93.5867 27.4653 93.2881 28.016C92.9894 28.576 92.5554 29.0147 91.9861 29.332C91.4261 29.6493 90.7541 29.808 89.9701 29.808C88.9247 29.808 88.0567 29.5607 87.3661 29.066C86.6754 28.5807 86.2834 27.918 86.1901 27.078H87.7721C87.8934 27.4793 88.1501 27.8013 88.5421 28.044C88.9434 28.296 89.4194 28.422 89.9701 28.422C90.6141 28.422 91.1321 28.226 91.5241 27.834C91.9254 27.442 92.1261 26.8727 92.1261 26.126V24.838C91.8554 25.202 91.4867 25.51 91.0201 25.762C90.5627 26.0047 90.0401 26.126 89.4521 26.126C88.7801 26.126 88.1641 25.958 87.6041 25.622C87.0534 25.2767 86.6147 24.8007 86.2881 24.194C85.9707 23.578 85.8121 22.8827 85.8121 22.108C85.8121 21.3333 85.9707 20.6473 86.2881 20.05C86.6147 19.4527 87.0534 18.9907 87.6041 18.664C88.1641 18.328 88.7801 18.16 89.4521 18.16ZM92.1261 22.136C92.1261 21.604 92.0141 21.142 91.7901 20.75C91.5754 20.358 91.2907 20.0593 90.9361 19.854C90.5814 19.6487 90.1987 19.546 89.7881 19.546C89.3774 19.546 88.9947 19.6487 88.6401 19.854C88.2854 20.05 87.9961 20.344 87.7721 20.736C87.5574 21.1187 87.4501 21.576 87.4501 22.108C87.4501 22.64 87.5574 23.1067 87.7721 23.508C87.9961 23.9093 88.2854 24.2173 88.6401 24.432C89.0041 24.6373 89.3867 24.74 89.7881 24.74C90.1987 24.74 90.5814 24.6373 90.9361 24.432C91.2907 24.2267 91.5754 23.928 91.7901 23.536C92.0141 23.1347 92.1261 22.668 92.1261 22.136ZM102.622 21.954C102.622 22.2433 102.604 22.5047 102.566 22.738H96.6723C96.719 23.354 96.9477 23.8487 97.3583 24.222C97.769 24.5953 98.273 24.782 98.8703 24.782C99.729 24.782 100.336 24.4227 100.69 23.704H102.412C102.179 24.4133 101.754 24.9967 101.138 25.454C100.532 25.902 99.7757 26.126 98.8703 26.126C98.133 26.126 97.4703 25.9627 96.8823 25.636C96.3037 25.3 95.8463 24.8333 95.5103 24.236C95.1837 23.6293 95.0203 22.9293 95.0203 22.136C95.0203 21.3427 95.179 20.6473 95.4963 20.05C95.823 19.4433 96.2757 18.9767 96.8543 18.65C97.4423 18.3233 98.1143 18.16 98.8703 18.16C99.5983 18.16 100.247 18.3187 100.816 18.636C101.386 18.9533 101.829 19.4013 102.146 19.98C102.464 20.5493 102.622 21.2073 102.622 21.954ZM100.956 21.45C100.947 20.862 100.737 20.3907 100.326 20.036C99.9157 19.6813 99.407 19.504 98.8003 19.504C98.2497 19.504 97.7783 19.6813 97.3863 20.036C96.9943 20.3813 96.761 20.8527 96.6863 21.45H100.956ZM115.656 16.27L112.002 26H110.154L106.486 16.27H108.194L111.078 24.362L113.976 16.27H115.656ZM123.78 21.954C123.78 22.2433 123.762 22.5047 123.724 22.738H117.83C117.877 23.354 118.106 23.8487 118.516 24.222C118.927 24.5953 119.431 24.782 120.028 24.782C120.887 24.782 121.494 24.4227 121.848 23.704H123.57C123.337 24.4133 122.912 24.9967 122.296 25.454C121.69 25.902 120.934 26.126 120.028 26.126C119.291 26.126 118.628 25.9627 118.04 25.636C117.462 25.3 117.004 24.8333 116.668 24.236C116.342 23.6293 116.178 22.9293 116.178 22.136C116.178 21.3427 116.337 20.6473 116.654 20.05C116.981 19.4433 117.434 18.9767 118.012 18.65C118.6 18.3233 119.272 18.16 120.028 18.16C120.756 18.16 121.405 18.3187 121.974 18.636C122.544 18.9533 122.987 19.4013 123.304 19.98C123.622 20.5493 123.78 21.2073 123.78 21.954ZM122.114 21.45C122.105 20.862 121.895 20.3907 121.484 20.036C121.074 19.6813 120.565 19.504 119.958 19.504C119.408 19.504 118.936 19.6813 118.544 20.036C118.152 20.3813 117.919 20.8527 117.844 21.45H122.114ZM129.061 18.16C129.649 18.16 130.172 18.286 130.629 18.538C131.096 18.79 131.46 19.1633 131.721 19.658C131.992 20.1527 132.127 20.75 132.127 21.45V26H130.545V21.688C130.545 20.9973 130.372 20.47 130.027 20.106C129.682 19.7327 129.21 19.546 128.613 19.546C128.016 19.546 127.54 19.7327 127.185 20.106C126.84 20.47 126.667 20.9973 126.667 21.688V26H125.071V15.64H126.667V19.182C126.938 18.8553 127.278 18.6033 127.689 18.426C128.109 18.2487 128.566 18.16 129.061 18.16ZM134.695 17.264C134.405 17.264 134.163 17.166 133.967 16.97C133.771 16.774 133.673 16.5313 133.673 16.242C133.673 15.9527 133.771 15.71 133.967 15.514C134.163 15.318 134.405 15.22 134.695 15.22C134.975 15.22 135.213 15.318 135.409 15.514C135.605 15.71 135.703 15.9527 135.703 16.242C135.703 16.5313 135.605 16.774 135.409 16.97C135.213 17.166 134.975 17.264 134.695 17.264ZM135.479 18.286V26H133.883V18.286H135.479ZM136.762 22.136C136.762 21.3427 136.921 20.6473 137.238 20.05C137.565 19.4433 138.013 18.9767 138.582 18.65C139.152 18.3233 139.805 18.16 140.542 18.16C141.476 18.16 142.246 18.384 142.852 18.832C143.468 19.2707 143.884 19.9007 144.098 20.722H142.376C142.236 20.3393 142.012 20.0407 141.704 19.826C141.396 19.6113 141.009 19.504 140.542 19.504C139.889 19.504 139.366 19.7373 138.974 20.204C138.592 20.6613 138.4 21.3053 138.4 22.136C138.4 22.9667 138.592 23.6153 138.974 24.082C139.366 24.5487 139.889 24.782 140.542 24.782C141.466 24.782 142.078 24.376 142.376 23.564H144.098C143.874 24.348 143.454 24.9733 142.838 25.44C142.222 25.8973 141.457 26.126 140.542 26.126C139.805 26.126 139.152 25.9627 138.582 25.636C138.013 25.3 137.565 24.8333 137.238 24.236C136.921 23.6293 136.762 22.9293 136.762 22.136ZM147.005 15.64V26H145.409V15.64H147.005ZM155.89 21.954C155.89 22.2433 155.871 22.5047 155.834 22.738H149.94C149.987 23.354 150.215 23.8487 150.626 24.222C151.037 24.5953 151.541 24.782 152.138 24.782C152.997 24.782 153.603 24.4227 153.958 23.704H155.68C155.447 24.4133 155.022 24.9967 154.406 25.454C153.799 25.902 153.043 26.126 152.138 26.126C151.401 26.126 150.738 25.9627 150.15 25.636C149.571 25.3 149.114 24.8333 148.778 24.236C148.451 23.6293 148.288 22.9293 148.288 22.136C148.288 21.3427 148.447 20.6473 148.764 20.05C149.091 19.4433 149.543 18.9767 150.122 18.65C150.71 18.3233 151.382 18.16 152.138 18.16C152.866 18.16 153.515 18.3187 154.084 18.636C154.653 18.9533 155.097 19.4013 155.414 19.98C155.731 20.5493 155.89 21.2073 155.89 21.954ZM154.224 21.45C154.215 20.862 154.005 20.3907 153.594 20.036C153.183 19.6813 152.675 19.504 152.068 19.504C151.517 19.504 151.046 19.6813 150.654 20.036C150.262 20.3813 150.029 20.8527 149.954 21.45H154.224Z" fill="white"/>
</svg>
