<svg width="22" height="22" viewBox="0 0 22 22" fill="none" xmlns="http://www.w3.org/2000/svg">
<g clip-path="url(#clip0_497_3050)">
<path d="M20.1667 2.75H1.83333C0.834167 2.78667 0.0366667 3.58417 0 4.58333V17.4167C0.0366667 18.4158 0.834167 19.2133 1.83333 19.25H20.1667C21.1658 19.2133 21.9633 18.4158 22 17.4167V4.58333C21.9831 4.10247 21.7846 3.6459 21.4443 3.30567C21.1041 2.96544 20.6475 2.76687 20.1667 2.75ZM20.1667 17.4167H1.83333V4.58333H20.1667V17.4167ZM12.8333 15.5833V14.4375C12.8333 12.9158 9.77167 12.1458 8.25 12.1458C6.72833 12.1458 3.66667 12.9158 3.66667 14.4375V15.5833H12.8333ZM8.25 6.41667C7.64221 6.41667 7.05932 6.65811 6.62955 7.08788C6.19978 7.51765 5.95833 8.10055 5.95833 8.70833C5.95833 9.00928 6.01761 9.30728 6.13278 9.58532C6.24794 9.86335 6.41675 10.116 6.62955 10.3288C7.05932 10.7586 7.64221 11 8.25 11C8.55095 11 8.84895 10.9407 9.12698 10.8256C9.40502 10.7104 9.65765 10.5416 9.87045 10.3288C10.0833 10.116 10.2521 9.86335 10.3672 9.58532C10.4824 9.30728 10.5417 9.00928 10.5417 8.70833C10.5417 8.40739 10.4824 8.10939 10.3672 7.83135C10.2521 7.55331 10.0833 7.30068 9.87045 7.08788C9.65765 6.87508 9.40502 6.70628 9.12698 6.59111C8.84895 6.47594 8.55095 6.41667 8.25 6.41667ZM12.8333 6.41667V7.33333H18.3333V6.41667H12.8333ZM12.8333 8.25V9.16667H18.3333V8.25H12.8333ZM12.8333 10.0833V11H16.5V10.0833H12.8333Z" fill="white"/>
</g>
<defs>
<clipPath id="clip0_497_3050">
<rect width="22" height="22" fill="white"/>
</clipPath>
</defs>
</svg>
