<svg width="22" height="22" viewBox="0 0 22 22" fill="none" xmlns="http://www.w3.org/2000/svg">
<path d="M14.6665 5.5H5.49984L0.916504 11V13.75H2.74984C2.74984 14.4793 3.03957 15.1788 3.55529 15.6945C4.07102 16.2103 4.77049 16.5 5.49984 16.5C6.22918 16.5 6.92866 16.2103 7.44438 15.6945C7.96011 15.1788 8.24984 14.4793 8.24984 13.75H13.7498C13.7498 14.4793 14.0396 15.1788 14.5553 15.6945C15.071 16.2103 15.7705 16.5 16.4998 16.5C17.2292 16.5 17.9287 16.2103 18.4444 15.6945C18.9601 15.1788 19.2498 14.4793 19.2498 13.75H21.0832V11C21.0832 9.9825 20.2673 9.16667 19.2498 9.16667H17.4165L14.6665 5.5ZM5.95817 6.875H9.62484V9.16667H4.12484L5.95817 6.875ZM10.9998 6.875H14.2082L16.0048 9.16667H10.9998V6.875ZM5.49984 12.375C5.86451 12.375 6.21425 12.5199 6.47211 12.7777C6.72997 13.0356 6.87484 13.3853 6.87484 13.75C6.87484 14.1147 6.72997 14.4644 6.47211 14.7223C6.21425 14.9801 5.86451 15.125 5.49984 15.125C5.13517 15.125 4.78543 14.9801 4.52757 14.7223C4.2697 14.4644 4.12484 14.1147 4.12484 13.75C4.12484 13.3853 4.2697 13.0356 4.52757 12.7777C4.78543 12.5199 5.13517 12.375 5.49984 12.375ZM16.4998 12.375C16.8645 12.375 17.2142 12.5199 17.4721 12.7777C17.73 13.0356 17.8748 13.3853 17.8748 13.75C17.8748 14.1147 17.73 14.4644 17.4721 14.7223C17.2142 14.9801 16.8645 15.125 16.4998 15.125C16.1352 15.125 15.7854 14.9801 15.5276 14.7223C15.2697 14.4644 15.1248 14.1147 15.1248 13.75C15.1248 13.3853 15.2697 13.0356 15.5276 12.7777C15.7854 12.5199 16.1352 12.375 16.4998 12.375Z" fill="white"/>
</svg>
