<svg width="30" height="30" viewBox="0 0 30 30" fill="none" xmlns="http://www.w3.org/2000/svg">
<path d="M15 20C15.663 20 16.2989 20.2634 16.7678 20.7322C17.2366 21.2011 17.5 21.837 17.5 22.5C17.5 23.163 17.2366 23.7989 16.7678 24.2678C16.2989 24.7366 15.663 25 15 25C14.337 25 13.7011 24.7366 13.2322 24.2678C12.7634 23.7989 12.5 23.163 12.5 22.5C12.5 21.837 12.7634 21.2011 13.2322 20.7322C13.7011 20.2634 14.337 20 15 20ZM15 12.5C15.663 12.5 16.2989 12.7634 16.7678 13.2322C17.2366 13.7011 17.5 14.337 17.5 15C17.5 15.663 17.2366 16.2989 16.7678 16.7678C16.2989 17.2366 15.663 17.5 15 17.5C14.337 17.5 13.7011 17.2366 13.2322 16.7678C12.7634 16.2989 12.5 15.663 12.5 15C12.5 14.337 12.7634 13.7011 13.2322 13.2322C13.7011 12.7634 14.337 12.5 15 12.5ZM15 5C15.663 5 16.2989 5.26339 16.7678 5.73223C17.2366 6.20107 17.5 6.83696 17.5 7.5C17.5 8.16304 17.2366 8.79893 16.7678 9.26777C16.2989 9.73661 15.663 10 15 10C14.337 10 13.7011 9.73661 13.2322 9.26777C12.7634 8.79893 12.5 8.16304 12.5 7.5C12.5 6.83696 12.7634 6.20107 13.2322 5.73223C13.7011 5.26339 14.337 5 15 5Z" fill="#113F67"/>
</svg>
