<svg width="30" height="31" viewBox="0 0 30 31" fill="none" xmlns="http://www.w3.org/2000/svg">
<path d="M15 3C15.9946 3 16.9484 3.39509 17.6517 4.09835C18.3549 4.80161 18.75 5.75544 18.75 6.75V14.25C18.75 15.2446 18.3549 16.1984 17.6517 16.9017C16.9484 17.6049 15.9946 18 15 18C14.0054 18 13.0516 17.6049 12.3483 16.9017C11.6451 16.1984 11.25 15.2446 11.25 14.25V6.75C11.25 5.75544 11.6451 4.80161 12.3483 4.09835C13.0516 3.39509 14.0054 3 15 3ZM23.75 14.25C23.75 18.6625 20.4875 22.3 16.25 22.9125V26.75H13.75V22.9125C9.5125 22.3 6.25 18.6625 6.25 14.25H8.75C8.75 15.9076 9.40848 17.4973 10.5806 18.6694C11.7527 19.8415 13.3424 20.5 15 20.5C16.6576 20.5 18.2473 19.8415 19.4194 18.6694C20.5915 17.4973 21.25 15.9076 21.25 14.25H23.75Z" fill="#113F67"/>
</svg>
