<svg width="56" height="56" viewBox="0 0 56 56" fill="none" xmlns="http://www.w3.org/2000/svg">
<rect x="4" y="4" width="48" height="48" rx="24" fill="#C3C2FF"/>
<rect x="4" y="4" width="48" height="48" rx="24" stroke="#E4E3FF" stroke-width="8"/>
<path d="M28 20C29.0609 20 30.0783 20.4214 30.8284 21.1716C31.5786 21.9217 32 22.9391 32 24C32 25.0609 31.5786 26.0783 30.8284 26.8284C30.0783 27.5786 29.0609 28 28 28C26.9391 28 25.9217 27.5786 25.1716 26.8284C24.4214 26.0783 24 25.0609 24 24C24 22.9391 24.4214 21.9217 25.1716 21.1716C25.9217 20.4214 26.9391 20 28 20ZM28 30C32.42 30 36 31.79 36 34V36H20V34C20 31.79 23.58 30 28 30Z" fill="#113F67"/>
</svg>
