<svg width="31" height="31" viewBox="0 0 31 31" fill="none" xmlns="http://www.w3.org/2000/svg">
<path d="M15.5 5.5L12.8875 8.1125L15.5 10.725M5.8375 4.25L4.25 5.8375L10.1625 11.75H4.25V19.25H9.25L15.5 25.5V17.0875L20.8125 22.4125C19.975 23.05 19.0375 23.575 18 23.875V26.4625C19.725 26.0625 21.2875 25.275 22.6 24.2L25.1625 26.75L26.75 25.1625L15.5 13.9125M24.25 15.5C24.25 16.675 24 17.775 23.575 18.8L25.4625 20.6875C26.3068 19.0887 26.7488 17.3081 26.75 15.5C26.75 10.15 23 5.675 18 4.5375V7.1125C21.6125 8.1875 24.25 11.5375 24.25 15.5ZM21.125 15.5C21.125 13.2875 19.875 11.3875 18 10.4625V13.225L21.0625 16.2875C21.125 16.0375 21.125 15.7625 21.125 15.5Z" fill="#005680"/>
</svg>
