<svg width="41" height="41" viewBox="0 0 41 41" fill="none" xmlns="http://www.w3.org/2000/svg">
<circle cx="20.5" cy="20.5" r="20.5" fill="#113F67"/>
<path d="M17.6333 30.5C16.35 30.5 15.2514 30.0431 14.3375 29.1292C13.4236 28.2153 12.9666 27.1167 12.9666 25.8333V16.2958C12.2861 16.0431 11.7272 15.6203 11.2901 15.0277C10.853 14.435 10.6341 13.7591 10.6333 13C10.6333 12.0278 10.9736 11.2014 11.6541 10.5208C12.3347 9.84028 13.1611 9.5 14.1333 9.5C15.1055 9.5 15.9319 9.84028 16.6125 10.5208C17.293 11.2014 17.6333 12.0278 17.6333 13C17.6333 13.7583 17.4147 14.4342 16.9776 15.0277C16.5405 15.6211 15.9813 16.0438 15.3 16.2958V25.8333C15.3 26.475 15.5286 27.0245 15.986 27.4818C16.4433 27.9392 16.9924 28.1674 17.6333 28.1667C18.2742 28.1659 18.8237 27.9376 19.2818 27.4818C19.7399 27.0261 19.9682 26.4766 19.9666 25.8333V14.1667C19.9666 12.8833 20.4236 11.7847 21.3375 10.8708C22.2514 9.95694 23.35 9.5 24.6333 9.5C25.9166 9.5 27.0152 9.95694 27.9291 10.8708C28.843 11.7847 29.3 12.8833 29.3 14.1667V23.7042C29.9805 23.9569 30.5397 24.3801 30.9776 24.9735C31.4155 25.5669 31.6341 26.2424 31.6333 27C31.6333 27.9722 31.293 28.7986 30.6125 29.4792C29.9319 30.1597 29.1055 30.5 28.1333 30.5C27.1611 30.5 26.3347 30.1597 25.6541 29.4792C24.9736 28.7986 24.6333 27.9722 24.6333 27C24.6333 26.2417 24.8522 25.5611 25.2901 24.9583C25.728 24.3556 26.2869 23.9375 26.9666 23.7042V14.1667C26.9666 13.525 26.7384 12.9759 26.2818 12.5193C25.8252 12.0628 25.2757 11.8341 24.6333 11.8333C23.9909 11.8326 23.4417 12.0612 22.986 12.5193C22.5302 12.9774 22.3015 13.5266 22.3 14.1667V25.8333C22.3 27.1167 21.843 28.2153 20.9291 29.1292C20.0152 30.0431 18.9166 30.5 17.6333 30.5ZM14.1333 14.1667C14.4639 14.1667 14.7411 14.0547 14.9651 13.8307C15.1891 13.6067 15.3007 13.3298 15.3 13C15.2992 12.6702 15.1872 12.3933 14.964 12.1693C14.7407 11.9453 14.4639 11.8333 14.1333 11.8333C13.8027 11.8333 13.5259 11.9453 13.3026 12.1693C13.0794 12.3933 12.9674 12.6702 12.9666 13C12.9659 13.3298 13.0779 13.6071 13.3026 13.8318C13.5274 14.0566 13.8043 14.1682 14.1333 14.1667ZM28.1333 28.1667C28.4639 28.1667 28.7411 28.0547 28.9651 27.8307C29.1891 27.6067 29.3007 27.3298 29.3 27C29.2992 26.6702 29.1872 26.3933 28.964 26.1693C28.7407 25.9453 28.4639 25.8333 28.1333 25.8333C27.8027 25.8333 27.5259 25.9453 27.3026 26.1693C27.0794 26.3933 26.9674 26.6702 26.9666 27C26.9659 27.3298 27.0779 27.6071 27.3026 27.8318C27.5274 28.0566 27.8043 28.1682 28.1333 28.1667Z" fill="white"/>
</svg>
