<svg width="28" height="28" viewBox="0 0 28 28" fill="none" xmlns="http://www.w3.org/2000/svg">
<path d="M10.6328 24.5C9.34948 24.5 8.25087 24.0431 7.33698 23.1292C6.42309 22.2153 5.96615 21.1167 5.96615 19.8333V10.2958C5.28559 10.0431 4.72676 9.62033 4.28965 9.02767C3.85253 8.435 3.63359 7.75911 3.63281 7C3.63281 6.02778 3.97309 5.20139 4.65365 4.52083C5.3342 3.84028 6.16059 3.5 7.13281 3.5C8.10503 3.5 8.93142 3.84028 9.61198 4.52083C10.2925 5.20139 10.6328 6.02778 10.6328 7C10.6328 7.75833 10.4143 8.43422 9.97715 9.02767C9.54003 9.62111 8.98081 10.0438 8.29948 10.2958V19.8333C8.29948 20.475 8.52815 21.0245 8.98548 21.4818C9.44281 21.9392 9.99192 22.1674 10.6328 22.1667C11.2737 22.1659 11.8232 21.9376 12.2813 21.4818C12.7394 21.0261 12.9677 20.4766 12.9661 19.8333V8.16667C12.9661 6.88333 13.4231 5.78472 14.337 4.87083C15.2509 3.95694 16.3495 3.5 17.6328 3.5C18.9161 3.5 20.0148 3.95694 20.9286 4.87083C21.8425 5.78472 22.2995 6.88333 22.2995 8.16667V17.7042C22.98 17.9569 23.5393 18.3801 23.9771 18.9735C24.415 19.5669 24.6336 20.2424 24.6328 21C24.6328 21.9722 24.2925 22.7986 23.612 23.4792C22.9314 24.1597 22.105 24.5 21.1328 24.5C20.1606 24.5 19.3342 24.1597 18.6536 23.4792C17.9731 22.7986 17.6328 21.9722 17.6328 21C17.6328 20.2417 17.8518 19.5611 18.2896 18.9583C18.7275 18.3556 19.2864 17.9375 19.9661 17.7042V8.16667C19.9661 7.525 19.7379 6.97589 19.2813 6.51933C18.8248 6.06278 18.2753 5.83411 17.6328 5.83333C16.9904 5.83256 16.4413 6.06122 15.9855 6.51933C15.5297 6.97744 15.301 7.52656 15.2995 8.16667V19.8333C15.2995 21.1167 14.8425 22.2153 13.9286 23.1292C13.0148 24.0431 11.9161 24.5 10.6328 24.5ZM7.13281 8.16667C7.46337 8.16667 7.74065 8.05467 7.96465 7.83067C8.18865 7.60667 8.30026 7.32978 8.29948 7C8.2987 6.67022 8.1867 6.39333 7.96348 6.16933C7.74026 5.94533 7.46337 5.83333 7.13281 5.83333C6.80226 5.83333 6.52537 5.94533 6.30215 6.16933C6.07892 6.39333 5.96692 6.67022 5.96615 7C5.96537 7.32978 6.07737 7.60706 6.30215 7.83183C6.52692 8.05661 6.80381 8.16822 7.13281 8.16667ZM21.1328 22.1667C21.4634 22.1667 21.7406 22.0547 21.9646 21.8307C22.1886 21.6067 22.3003 21.3298 22.2995 21C22.2987 20.6702 22.1867 20.3933 21.9635 20.1693C21.7403 19.9453 21.4634 19.8333 21.1328 19.8333C20.8023 19.8333 20.5254 19.9453 20.3021 20.1693C20.0789 20.3933 19.9669 20.6702 19.9661 21C19.9654 21.3298 20.0774 21.6071 20.3021 21.8318C20.5269 22.0566 20.8038 22.1682 21.1328 22.1667Z" fill="#8D8D8D"/>
</svg>
