<svg width="28" height="28" viewBox="0 0 28 28" fill="none" xmlns="http://www.w3.org/2000/svg">
<path d="M10.6333 24.5C9.34997 24.5 8.25136 24.0431 7.33747 23.1292C6.42358 22.2153 5.96663 21.1167 5.96663 19.8333V10.2958C5.28608 10.0431 4.72725 9.62033 4.29013 9.02767C3.85302 8.435 3.63408 7.75911 3.6333 7C3.6333 6.02778 3.97358 5.20139 4.65413 4.52083C5.33469 3.84028 6.16108 3.5 7.1333 3.5C8.10552 3.5 8.93191 3.84028 9.61247 4.52083C10.293 5.20139 10.6333 6.02778 10.6333 7C10.6333 7.75833 10.4147 8.43422 9.97763 9.02767C9.54052 9.62111 8.9813 10.0438 8.29997 10.2958V19.8333C8.29997 20.475 8.52863 21.0245 8.98597 21.4818C9.4433 21.9392 9.99241 22.1674 10.6333 22.1667C11.2742 22.1659 11.8237 21.9376 12.2818 21.4818C12.7399 21.0261 12.9682 20.4766 12.9666 19.8333V8.16667C12.9666 6.88333 13.4236 5.78472 14.3375 4.87083C15.2514 3.95694 16.35 3.5 17.6333 3.5C18.9166 3.5 20.0152 3.95694 20.9291 4.87083C21.843 5.78472 22.3 6.88333 22.3 8.16667V17.7042C22.9805 17.9569 23.5397 18.3801 23.9776 18.9735C24.4155 19.5669 24.6341 20.2424 24.6333 21C24.6333 21.9722 24.293 22.7986 23.6125 23.4792C22.9319 24.1597 22.1055 24.5 21.1333 24.5C20.1611 24.5 19.3347 24.1597 18.6541 23.4792C17.9736 22.7986 17.6333 21.9722 17.6333 21C17.6333 20.2417 17.8522 19.5611 18.2901 18.9583C18.728 18.3556 19.2869 17.9375 19.9666 17.7042V8.16667C19.9666 7.525 19.7384 6.97589 19.2818 6.51933C18.8252 6.06278 18.2757 5.83411 17.6333 5.83333C16.9909 5.83256 16.4417 6.06122 15.986 6.51933C15.5302 6.97744 15.3015 7.52656 15.3 8.16667V19.8333C15.3 21.1167 14.843 22.2153 13.9291 23.1292C13.0152 24.0431 11.9166 24.5 10.6333 24.5ZM7.1333 8.16667C7.46386 8.16667 7.74113 8.05467 7.96513 7.83067C8.18913 7.60667 8.30075 7.32978 8.29997 7C8.29919 6.67022 8.18719 6.39333 7.96397 6.16933C7.74075 5.94533 7.46386 5.83333 7.1333 5.83333C6.80275 5.83333 6.52586 5.94533 6.30263 6.16933C6.07941 6.39333 5.96741 6.67022 5.96663 7C5.96586 7.32978 6.07786 7.60706 6.30263 7.83183C6.52741 8.05661 6.8043 8.16822 7.1333 8.16667ZM21.1333 22.1667C21.4639 22.1667 21.7411 22.0547 21.9651 21.8307C22.1891 21.6067 22.3007 21.3298 22.3 21C22.2992 20.6702 22.1872 20.3933 21.964 20.1693C21.7407 19.9453 21.4639 19.8333 21.1333 19.8333C20.8027 19.8333 20.5259 19.9453 20.3026 20.1693C20.0794 20.3933 19.9674 20.6702 19.9666 21C19.9659 21.3298 20.0779 21.6071 20.3026 21.8318C20.5274 22.0566 20.8043 22.1682 21.1333 22.1667Z" fill="#113F67"/>
</svg>
