<svg width="68" height="47" viewBox="0 0 68 47" fill="none" xmlns="http://www.w3.org/2000/svg">
<path d="M30.6333 24.5C29.35 24.5 28.2514 24.0431 27.3375 23.1292C26.4236 22.2153 25.9666 21.1167 25.9666 19.8333V10.2958C25.2861 10.0431 24.7272 9.62033 24.2901 9.02767C23.853 8.435 23.6341 7.75911 23.6333 7C23.6333 6.02778 23.9736 5.20139 24.6541 4.52083C25.3347 3.84028 26.1611 3.5 27.1333 3.5C28.1055 3.5 28.9319 3.84028 29.6125 4.52083C30.293 5.20139 30.6333 6.02778 30.6333 7C30.6333 7.75833 30.4147 8.43422 29.9776 9.02767C29.5405 9.62111 28.9813 10.0438 28.3 10.2958V19.8333C28.3 20.475 28.5286 21.0245 28.986 21.4818C29.4433 21.9392 29.9924 22.1674 30.6333 22.1667C31.2742 22.1659 31.8237 21.9376 32.2818 21.4818C32.7399 21.0261 32.9682 20.4766 32.9666 19.8333V8.16667C32.9666 6.88333 33.4236 5.78472 34.3375 4.87083C35.2514 3.95694 36.35 3.5 37.6333 3.5C38.9166 3.5 40.0152 3.95694 40.9291 4.87083C41.843 5.78472 42.3 6.88333 42.3 8.16667V17.7042C42.9805 17.9569 43.5397 18.3801 43.9776 18.9735C44.4155 19.5669 44.6341 20.2424 44.6333 21C44.6333 21.9722 44.293 22.7986 43.6125 23.4792C42.9319 24.1597 42.1055 24.5 41.1333 24.5C40.1611 24.5 39.3347 24.1597 38.6541 23.4792C37.9736 22.7986 37.6333 21.9722 37.6333 21C37.6333 20.2417 37.8522 19.5611 38.2901 18.9583C38.728 18.3556 39.2869 17.9375 39.9666 17.7042V8.16667C39.9666 7.525 39.7384 6.97589 39.2818 6.51933C38.8252 6.06278 38.2757 5.83411 37.6333 5.83333C36.9909 5.83256 36.4417 6.06122 35.986 6.51933C35.5302 6.97744 35.3015 7.52656 35.3 8.16667V19.8333C35.3 21.1167 34.843 22.2153 33.9291 23.1292C33.0152 24.0431 31.9166 24.5 30.6333 24.5ZM27.1333 8.16667C27.4639 8.16667 27.7411 8.05467 27.9651 7.83067C28.1891 7.60667 28.3007 7.32978 28.3 7C28.2992 6.67022 28.1872 6.39333 27.964 6.16933C27.7407 5.94533 27.4639 5.83333 27.1333 5.83333C26.8027 5.83333 26.5259 5.94533 26.3026 6.16933C26.0794 6.39333 25.9674 6.67022 25.9666 7C25.9659 7.32978 26.0779 7.60706 26.3026 7.83183C26.5274 8.05661 26.8043 8.16822 27.1333 8.16667ZM41.1333 22.1667C41.4639 22.1667 41.7411 22.0547 41.9651 21.8307C42.1891 21.6067 42.3007 21.3298 42.3 21C42.2992 20.6702 42.1872 20.3933 41.964 20.1693C41.7407 19.9453 41.4639 19.8333 41.1333 19.8333C40.8027 19.8333 40.5259 19.9453 40.3026 20.1693C40.0794 20.3933 39.9674 20.6702 39.9666 21C39.9659 21.3298 40.0779 21.6071 40.3026 21.8318C40.5274 22.0566 40.8043 22.1682 41.1333 22.1667Z" fill="#113F67"/>
<path d="M15.6474 33.312V43H14.3734V35.776L11.1534 43H10.2574L7.02337 35.762V43H5.74937V33.312H7.12137L10.7054 41.32L14.2894 33.312H15.6474ZM24.696 35.328L20.076 46.612H18.76L20.272 42.916L17.178 35.328H18.592L21 41.544L23.38 35.328H24.696ZM36.2751 33.242V34.278H33.6151V43H32.3411V34.278H29.6671V33.242H36.2751ZM39.3973 36.574C39.6213 36.1353 39.9386 35.7947 40.3493 35.552C40.7693 35.3093 41.2779 35.188 41.8753 35.188V36.504H41.5393C40.1113 36.504 39.3973 37.2787 39.3973 38.828V43H38.1233V35.328H39.3973V36.574ZM44.2839 34.082C44.0413 34.082 43.8359 33.998 43.6679 33.83C43.4999 33.662 43.4159 33.4567 43.4159 33.214C43.4159 32.9713 43.4999 32.766 43.6679 32.598C43.8359 32.43 44.0413 32.346 44.2839 32.346C44.5173 32.346 44.7133 32.43 44.8719 32.598C45.0399 32.766 45.1239 32.9713 45.1239 33.214C45.1239 33.4567 45.0399 33.662 44.8719 33.83C44.7133 33.998 44.5173 34.082 44.2839 34.082ZM44.8999 35.328V43H43.6259V35.328H44.8999ZM48.6252 36.742C48.8772 36.3033 49.2506 35.9393 49.7452 35.65C50.2492 35.3513 50.8326 35.202 51.4952 35.202C52.1766 35.202 52.7926 35.3653 53.3432 35.692C53.9032 36.0187 54.3419 36.4807 54.6592 37.078C54.9766 37.666 55.1352 38.352 55.1352 39.136C55.1352 39.9107 54.9766 40.6013 54.6592 41.208C54.3419 41.8147 53.9032 42.286 53.3432 42.622C52.7926 42.958 52.1766 43.126 51.4952 43.126C50.8419 43.126 50.2632 42.9813 49.7592 42.692C49.2646 42.3933 48.8866 42.0247 48.6252 41.586V46.64H47.3512V35.328H48.6252V36.742ZM53.8332 39.136C53.8332 38.5573 53.7166 38.0533 53.4832 37.624C53.2499 37.1947 52.9326 36.868 52.5312 36.644C52.1392 36.42 51.7052 36.308 51.2292 36.308C50.7626 36.308 50.3286 36.4247 49.9272 36.658C49.5352 36.882 49.2179 37.2133 48.9752 37.652C48.7419 38.0813 48.6252 38.5807 48.6252 39.15C48.6252 39.7287 48.7419 40.2373 48.9752 40.676C49.2179 41.1053 49.5352 41.4367 49.9272 41.67C50.3286 41.894 50.7626 42.006 51.2292 42.006C51.7052 42.006 52.1392 41.894 52.5312 41.67C52.9326 41.4367 53.2499 41.1053 53.4832 40.676C53.7166 40.2373 53.8332 39.724 53.8332 39.136ZM59.8082 43.126C59.2202 43.126 58.6928 43.028 58.2262 42.832C57.7595 42.6267 57.3908 42.3467 57.1202 41.992C56.8495 41.628 56.7002 41.2127 56.6722 40.746H57.9882C58.0255 41.1287 58.2028 41.4413 58.5202 41.684C58.8468 41.9267 59.2715 42.048 59.7942 42.048C60.2795 42.048 60.6622 41.9407 60.9422 41.726C61.2222 41.5113 61.3622 41.2407 61.3622 40.914C61.3622 40.578 61.2128 40.3307 60.9142 40.172C60.6155 40.004 60.1535 39.8407 59.5282 39.682C58.9588 39.5327 58.4922 39.3833 58.1282 39.234C57.7735 39.0753 57.4655 38.8467 57.2042 38.548C56.9522 38.24 56.8262 37.8387 56.8262 37.344C56.8262 36.952 56.9428 36.5927 57.1762 36.266C57.4095 35.9393 57.7408 35.6827 58.1702 35.496C58.5995 35.3 59.0895 35.202 59.6402 35.202C60.4895 35.202 61.1755 35.4167 61.6982 35.846C62.2208 36.2753 62.5008 36.8633 62.5382 37.61H61.2642C61.2362 37.2087 61.0728 36.8867 60.7742 36.644C60.4848 36.4013 60.0928 36.28 59.5982 36.28C59.1408 36.28 58.7768 36.378 58.5062 36.574C58.2355 36.77 58.1002 37.0267 58.1002 37.344C58.1002 37.596 58.1795 37.806 58.3382 37.974C58.5062 38.1327 58.7115 38.2633 58.9542 38.366C59.2062 38.4593 59.5515 38.5667 59.9902 38.688C60.5408 38.8373 60.9888 38.9867 61.3342 39.136C61.6795 39.276 61.9735 39.4907 62.2162 39.78C62.4682 40.0693 62.5988 40.4473 62.6082 40.914C62.6082 41.334 62.4915 41.712 62.2582 42.048C62.0248 42.384 61.6935 42.65 61.2642 42.846C60.8442 43.0327 60.3588 43.126 59.8082 43.126Z" fill="#113F67"/>
</svg>
