<svg width="30" height="38" viewBox="0 0 30 38" fill="none" xmlns="http://www.w3.org/2000/svg">
<path d="M5 24.0001V25.6667C5 26.139 4.84 26.5351 4.52 26.8551C4.2 27.1751 3.80444 27.3345 3.33333 27.3334H1.66667C1.19444 27.3334 0.798889 27.1734 0.48 26.8534C0.161111 26.5334 0.00111111 26.1379 0 25.6667V12.3334L3.5 2.33341C3.66667 1.83341 3.96556 1.43064 4.39667 1.12508C4.82778 0.819526 5.30667 0.666748 5.83333 0.666748H24.1667C24.6944 0.666748 25.1739 0.819526 25.605 1.12508C26.0361 1.43064 26.3344 1.83341 26.5 2.33341L30 12.3334V25.6667C30 26.139 29.8406 26.5351 29.5217 26.8551C29.2028 27.1751 28.8067 27.3345 28.3333 27.3334H26.6667C26.1944 27.3334 25.7989 27.1734 25.48 26.8534C25.1611 26.5334 25.0011 26.1379 25 25.6667V24.0001H5ZM4.66667 9.00008H25.3333L23.5833 4.00008H6.41667L4.66667 9.00008ZM7.5 19.0001C8.19444 19.0001 8.785 18.7573 9.27167 18.2717C9.75833 17.7862 10.0011 17.1956 10 16.5001C9.99889 15.8045 9.75611 15.2145 9.27167 14.7301C8.78722 14.2456 8.19667 14.0023 7.5 14.0001C6.80333 13.9979 6.21333 14.2412 5.73 14.7301C5.24667 15.219 5.00333 15.809 5 16.5001C4.99667 17.1912 5.24 17.7817 5.73 18.2717C6.22 18.7617 6.81 19.0045 7.5 19.0001ZM22.5 19.0001C23.1944 19.0001 23.785 18.7573 24.2717 18.2717C24.7583 17.7862 25.0011 17.1956 25 16.5001C24.9989 15.8045 24.7561 15.2145 24.2717 14.7301C23.7872 14.2456 23.1967 14.0023 22.5 14.0001C21.8033 13.9979 21.2133 14.2412 20.73 14.7301C20.2467 15.219 20.0033 15.809 20 16.5001C19.9967 17.1912 20.24 17.7817 20.73 18.2717C21.22 18.7617 21.81 19.0045 22.5 19.0001ZM16.6667 37.3334L6.66667 32.3334H13.3333V29.0001L23.3333 34.0001H16.6667V37.3334Z" fill="#113F67"/>
</svg>
