<svg width="24" height="24" viewBox="0 0 24 24" fill="none" xmlns="http://www.w3.org/2000/svg">
<path d="M12 17C13.3925 17 14.5742 16.515 15.545 15.545C16.515 14.5733 17 13.3917 17 12C17 10.6083 16.515 9.42708 15.545 8.45625C14.575 7.48542 13.3933 7 12 7C10.6067 7 9.42542 7.48542 8.45625 8.45625C7.48708 9.42708 7.00167 10.6083 7 12C6.99833 13.3917 7.48375 14.5733 8.45625 15.545C9.42875 16.5167 10.61 17.0017 12 17ZM12.0037 23.25C10.4479 23.25 8.98542 22.955 7.61625 22.365C6.24708 21.7742 5.05583 20.9725 4.0425 19.96C3.02917 18.9475 2.22708 17.7575 1.63625 16.39C1.04542 15.0225 0.75 13.5604 0.75 12.0037C0.75 10.4471 1.04542 8.98458 1.63625 7.61625C2.22625 6.24708 3.02667 5.05583 4.0375 4.0425C5.04833 3.02917 6.23875 2.22708 7.60875 1.63625C8.97875 1.04542 10.4412 0.75 11.9963 0.75C13.5512 0.75 15.0138 1.04542 16.3837 1.63625C17.7529 2.22625 18.9442 3.02708 19.9575 4.03875C20.9708 5.05042 21.7729 6.24083 22.3638 7.61C22.9546 8.97917 23.25 10.4412 23.25 11.9963C23.25 13.5512 22.955 15.0138 22.365 16.3837C21.775 17.7537 20.9733 18.945 19.96 19.9575C18.9467 20.97 17.7567 21.7721 16.39 22.3638C15.0233 22.9554 13.5613 23.2508 12.0037 23.25Z" fill="#716F6F"/>
</svg>
