<svg width="31" height="31" viewBox="0 0 31 31" fill="none" xmlns="http://www.w3.org/2000/svg">
<path d="M15.5 20.5C16.8925 20.5 18.0742 20.015 19.045 19.045C20.015 18.0733 20.5 16.8917 20.5 15.5C20.5 14.1083 20.015 12.9271 19.045 11.9563C18.075 10.9854 16.8933 10.5 15.5 10.5C14.1067 10.5 12.9254 10.9854 11.9563 11.9563C10.9871 12.9271 10.5017 14.1083 10.5 15.5C10.4983 16.8917 10.9837 18.0733 11.9563 19.045C12.9288 20.0167 14.11 20.5017 15.5 20.5ZM15.5037 26.75C13.9479 26.75 12.4854 26.455 11.1163 25.865C9.74708 25.2742 8.55583 24.4725 7.5425 23.46C6.52917 22.4475 5.72708 21.2575 5.13625 19.89C4.54542 18.5225 4.25 17.0604 4.25 15.5037C4.25 13.9471 4.54542 12.4846 5.13625 11.1163C5.72625 9.74708 6.52667 8.55583 7.5375 7.5425C8.54833 6.52917 9.73875 5.72708 11.1088 5.13625C12.4788 4.54542 13.9412 4.25 15.4963 4.25C17.0512 4.25 18.5138 4.54542 19.8837 5.13625C21.2529 5.72625 22.4442 6.52708 23.4575 7.53875C24.4708 8.55042 25.2729 9.74083 25.8638 11.11C26.4546 12.4792 26.75 13.9412 26.75 15.4963C26.75 17.0512 26.455 18.5138 25.865 19.8837C25.275 21.2537 24.4733 22.445 23.46 23.4575C22.4467 24.47 21.2567 25.2721 19.89 25.8638C18.5233 26.4554 17.0613 26.7508 15.5037 26.75Z" fill="#716F6F"/>
</svg>
