<svg width="40" height="40" viewBox="0 0 40 40" fill="none" xmlns="http://www.w3.org/2000/svg">
<path d="M22.5 13.75C22.5 16.7337 21.3147 19.5952 19.205 21.705C17.0952 23.8147 14.2337 25 11.25 25C8.26631 25 5.40483 23.8147 3.29505 21.705C1.18526 19.5952 0 16.7337 0 13.75C0 10.7663 1.18526 7.90483 3.29505 5.79505C5.40483 3.68526 8.26631 2.5 11.25 2.5C14.2337 2.5 17.0952 3.68526 19.205 5.79505C21.3147 7.90483 22.5 10.7663 22.5 13.75ZM11.25 7.5C10.9185 7.5 10.6005 7.6317 10.3661 7.86612C10.1317 8.10054 10 8.41848 10 8.75V13.75C10 14.0815 10.1317 14.3995 10.3661 14.6339C10.6005 14.8683 10.9185 15 11.25 15H15C15.3315 15 15.6495 14.8683 15.8839 14.6339C16.1183 14.3995 16.25 14.0815 16.25 13.75C16.25 13.4185 16.1183 13.1005 15.8839 12.8661C15.6495 12.6317 15.3315 12.5 15 12.5H12.5V8.75C12.5 8.41848 12.3683 8.10054 12.1339 7.86612C11.8995 7.6317 11.5815 7.5 11.25 7.5ZM11.25 27.5C16.075 27.5 20.325 25.0125 22.775 21.25H28.8325L26.5575 16.985C26.1879 16.2917 25.6098 15.7321 24.905 15.385C25.0078 14.5063 25.027 13.6198 24.9625 12.7375C25.7696 12.9679 26.522 13.3584 27.1749 13.8859C27.8277 14.4133 28.3677 15.0668 28.7625 15.8075L31.6025 21.13L35.845 22.64C37.0602 23.0723 38.1118 23.87 38.8557 24.9236C39.5996 25.9773 39.9993 27.2352 40 28.525V29.3725C40 31.1475 38.945 32.6725 37.425 33.36C37.2285 34.4859 36.6521 35.5106 35.792 36.2632C34.9318 37.0159 33.8397 37.4511 32.6977 37.4964C31.5556 37.5417 30.4325 37.1944 29.5154 36.5122C28.5983 35.8301 27.9426 34.8543 27.6575 33.7475H17.3425C17.0574 34.8543 16.4017 35.8301 15.4846 36.5122C14.5675 37.1944 13.4444 37.5417 12.3023 37.4964C11.1603 37.4511 10.0682 37.0159 9.20803 36.2632C8.34786 35.5106 7.77152 34.4859 7.575 33.36C6.80799 33.0138 6.15712 32.4537 5.7004 31.7469C5.24368 31.0401 5.00049 30.2165 5 29.375V26.59C5 26.3967 5.00833 26.205 5.025 26.015C6.895 26.965 9.01 27.5 11.25 27.5ZM10 32.5C10 33.163 10.2634 33.7989 10.7322 34.2678C11.2011 34.7366 11.837 35 12.5 35C13.163 35 13.7989 34.7366 14.2678 34.2678C14.7366 33.7989 15 33.163 15 32.5C15 31.837 14.7366 31.2011 14.2678 30.7322C13.7989 30.2634 13.163 30 12.5 30C11.837 30 11.2011 30.2634 10.7322 30.7322C10.2634 31.2011 10 31.837 10 32.5ZM32.5 30C31.837 30 31.2011 30.2634 30.7322 30.7322C30.2634 31.2011 30 31.837 30 32.5C30 33.163 30.2634 33.7989 30.7322 34.2678C31.2011 34.7366 31.837 35 32.5 35C33.163 35 33.7989 34.7366 34.2678 34.2678C34.7366 33.7989 35 33.163 35 32.5C35 31.837 34.7366 31.2011 34.2678 30.7322C33.7989 30.2634 33.163 30 32.5 30Z" fill="#113F67"/>
</svg>
