<svg width="34" height="34" viewBox="0 0 34 34" fill="none" xmlns="http://www.w3.org/2000/svg">
<path d="M21.9997 23.6663H18.6663V10.333H21.9997M15.333 23.6663H11.9997V10.333H15.333M16.9997 0.333008C14.811 0.333008 12.6437 0.764104 10.6216 1.60168C8.59952 2.43926 6.7622 3.66692 5.21456 5.21456C2.08896 8.34017 0.333008 12.5794 0.333008 16.9997C0.333008 21.4199 2.08896 25.6592 5.21456 28.7848C6.7622 30.3324 8.59952 31.5601 10.6216 32.3977C12.6437 33.2352 14.811 33.6663 16.9997 33.6663C21.4199 33.6663 25.6592 31.9104 28.7848 28.7848C31.9104 25.6592 33.6663 21.4199 33.6663 16.9997C33.6663 14.811 33.2352 12.6437 32.3977 10.6216C31.5601 8.59952 30.3324 6.7622 28.7848 5.21456C27.2371 3.66692 25.3998 2.43926 23.3777 1.60168C21.3556 0.764104 19.1884 0.333008 16.9997 0.333008Z" fill="#005680"/>
</svg>
