<svg width="30" height="30" viewBox="0 0 30 30" fill="none" xmlns="http://www.w3.org/2000/svg">
<path d="M12.9813 19.0375L19.0375 15L12.98 10.9625L12.9813 19.0375ZM15 26.25C13.4467 26.25 11.9858 25.9579 10.6175 25.3737C9.24917 24.7896 8.05875 23.9912 7.04625 22.9787C6.03375 21.9662 5.23125 20.7792 4.63875 19.4175C4.04625 18.0575 3.75 16.6017 3.75 15.05C3.75 14.2983 3.81958 13.5583 3.95875 12.83C4.09792 12.1017 4.305 11.3871 4.58 10.6862L5.555 11.6613C5.3725 12.2029 5.23458 12.7517 5.14125 13.3075C5.04792 13.8633 5.00083 14.4275 5 15C5 17.7917 5.96875 20.1562 7.90625 22.0938C9.84375 24.0312 12.2083 25 15 25C17.7917 25 20.1562 24.0312 22.0938 22.0938C24.0312 20.1562 25 17.7917 25 15C25 12.2083 24.0312 9.84375 22.0938 7.90625C20.1562 5.96875 17.7917 5 15 5C14.4375 5 13.8825 5.04667 13.335 5.14C12.7875 5.23333 12.2458 5.37167 11.71 5.555L10.74 4.58625C11.3975 4.32375 12.0667 4.11875 12.7475 3.97125C13.4283 3.82375 14.1313 3.75 14.8563 3.75C16.4246 3.75 17.9012 4.04208 19.2863 4.62625C20.6712 5.21042 21.8779 6.01292 22.9062 7.03375C23.9346 8.05458 24.7492 9.24917 25.35 10.6175C25.9508 11.9858 26.2508 13.4467 26.25 15C26.2492 16.5533 25.9533 18.0142 25.3625 19.3825C24.77 20.7508 23.9675 21.9413 22.955 22.9538C21.9417 23.9671 20.7508 24.7696 19.3825 25.3612C18.0142 25.9537 16.5533 26.25 15 26.25ZM7.40375 8.51C7.10708 8.51 6.84875 8.39958 6.62875 8.17875C6.40875 7.95875 6.29875 7.70042 6.29875 7.40375C6.29875 7.10708 6.40875 6.84875 6.62875 6.62875C6.84875 6.40875 7.10708 6.29875 7.40375 6.29875C7.70042 6.29875 7.95875 6.40875 8.17875 6.62875C8.39875 6.84875 8.50917 7.10708 8.51 7.40375C8.51083 7.70042 8.40042 7.95875 8.17875 8.17875C7.95708 8.39875 7.69875 8.50917 7.40375 8.51Z" fill="#113F67"/>
</svg>
