<svg width="30" height="31" viewBox="0 0 30 31" fill="none" xmlns="http://www.w3.org/2000/svg">
<path d="M12.9813 19.5375L19.0375 15.5L12.98 11.4625L12.9813 19.5375ZM15 26.75C13.4467 26.75 11.9858 26.4579 10.6175 25.8737C9.24917 25.2896 8.05875 24.4912 7.04625 23.4787C6.03375 22.4662 5.23125 21.2792 4.63875 19.9175C4.04625 18.5575 3.75 17.1017 3.75 15.55C3.75 14.7983 3.81958 14.0583 3.95875 13.33C4.09792 12.6017 4.305 11.8871 4.58 11.1862L5.555 12.1613C5.3725 12.7029 5.23458 13.2517 5.14125 13.8075C5.04792 14.3633 5.00083 14.9275 5 15.5C5 18.2917 5.96875 20.6562 7.90625 22.5938C9.84375 24.5312 12.2083 25.5 15 25.5C17.7917 25.5 20.1562 24.5312 22.0938 22.5938C24.0312 20.6562 25 18.2917 25 15.5C25 12.7083 24.0312 10.3437 22.0938 8.40625C20.1562 6.46875 17.7917 5.5 15 5.5C14.4375 5.5 13.8825 5.54667 13.335 5.64C12.7875 5.73333 12.2458 5.87167 11.71 6.055L10.74 5.08625C11.3975 4.82375 12.0667 4.61875 12.7475 4.47125C13.4283 4.32375 14.1313 4.25 14.8563 4.25C16.4246 4.25 17.9012 4.54208 19.2863 5.12625C20.6712 5.71042 21.8779 6.51292 22.9062 7.53375C23.9346 8.55458 24.7492 9.74917 25.35 11.1175C25.9508 12.4858 26.2508 13.9467 26.25 15.5C26.2492 17.0533 25.9533 18.5142 25.3625 19.8825C24.77 21.2508 23.9675 22.4413 22.955 23.4538C21.9417 24.4671 20.7508 25.2696 19.3825 25.8612C18.0142 26.4537 16.5533 26.75 15 26.75ZM7.40375 9.01C7.10708 9.01 6.84875 8.89958 6.62875 8.67875C6.40875 8.45875 6.29875 8.20042 6.29875 7.90375C6.29875 7.60708 6.40875 7.34875 6.62875 7.12875C6.84875 6.90875 7.10708 6.79875 7.40375 6.79875C7.70042 6.79875 7.95875 6.90875 8.17875 7.12875C8.39875 7.34875 8.50917 7.60708 8.51 7.90375C8.51083 8.20042 8.40042 8.45875 8.17875 8.67875C7.95708 8.89875 7.69875 9.00917 7.40375 9.01Z" fill="#113F67"/>
</svg>
