<svg width="32" height="27" viewBox="0 0 32 27" fill="none" xmlns="http://www.w3.org/2000/svg">
<path d="M15 21.9999C15 16.4833 19.4833 11.9999 25 11.9999C26.8167 11.9999 28.5333 12.4999 30 13.3499V11.9999L26.5333 1.99992C26.2 1.03325 25.2667 0.333252 24.1667 0.333252H5.83333C4.73333 0.333252 3.8 1.03325 3.46667 1.99992L0 11.9999V25.3333C0 26.2499 0.75 26.9999 1.66667 26.9999H3.33333C4.25 26.9999 5 26.2499 5 25.3333V23.6666H15.15C15.0667 23.1166 15 22.5666 15 21.9999ZM5.83333 2.83325H24.1667L26.6667 10.3333H3.33333L5.83333 2.83325ZM5.83333 18.6666C4.45 18.6666 3.33333 17.5499 3.33333 16.1666C3.33333 14.7833 4.45 13.6666 5.83333 13.6666C7.21667 13.6666 8.33333 14.7833 8.33333 16.1666C8.33333 17.5499 7.21667 18.6666 5.83333 18.6666ZM26.6667 26.9999V23.6666H20V20.3333H26.6667V16.9999L31.6667 21.9999L26.6667 26.9999Z" fill="#113F67"/>
</svg>
