<svg width="22" height="22" viewBox="0 0 22 22" fill="none" xmlns="http://www.w3.org/2000/svg">
<path d="M10.9998 3.66699C11.9723 3.66699 12.9049 4.0533 13.5926 4.74093C14.2802 5.42857 14.6665 6.3612 14.6665 7.33366C14.6665 8.30612 14.2802 9.23875 13.5926 9.92638C12.9049 10.614 11.9723 11.0003 10.9998 11.0003C10.0274 11.0003 9.09475 10.614 8.40711 9.92638C7.71948 9.23875 7.33317 8.30612 7.33317 7.33366C7.33317 6.3612 7.71948 5.42857 8.40711 4.74093C9.09475 4.0533 10.0274 3.66699 10.9998 3.66699ZM10.9998 12.8337C15.0515 12.8337 18.3332 14.4745 18.3332 16.5003V18.3337H3.6665V16.5003C3.6665 14.4745 6.94817 12.8337 10.9998 12.8337Z" fill="white"/>
</svg>
