<svg width="40" height="40" viewBox="0 0 40 40" fill="none" xmlns="http://www.w3.org/2000/svg">
<path d="M20 29.9999C20 24.4833 24.4833 19.9999 30 19.9999C31.8167 19.9999 33.5333 20.4999 35 21.3499V19.9999L31.5333 9.99992C31.2 9.03325 30.2667 8.33325 29.1667 8.33325H10.8333C9.73333 8.33325 8.8 9.03325 8.46667 9.99992L5 19.9999V33.3333C5 34.2499 5.75 34.9999 6.66667 34.9999H8.33333C9.25 34.9999 10 34.2499 10 33.3333V31.6666H20.15C20.0667 31.1166 20 30.5666 20 29.9999ZM10.8333 10.8333H29.1667L31.6667 18.3333H8.33333L10.8333 10.8333ZM10.8333 26.6666C9.45 26.6666 8.33333 25.5499 8.33333 24.1666C8.33333 22.7833 9.45 21.6666 10.8333 21.6666C12.2167 21.6666 13.3333 22.7833 13.3333 24.1666C13.3333 25.5499 12.2167 26.6666 10.8333 26.6666ZM30 24.9999V28.3333H36.6667V31.6666H30V34.9999L25 29.9999L30 24.9999Z" fill="#113F67"/>
</svg>
