<svg width="26" height="25" viewBox="0 0 26 25" fill="none" xmlns="http://www.w3.org/2000/svg">
<path d="M10.3958 3.125C12.1916 3.125 13.9138 3.83835 15.1835 5.10813C16.4533 6.37791 17.1667 8.1001 17.1667 9.89583C17.1667 11.5729 16.5521 13.1146 15.5417 14.3021L15.8229 14.5833H16.6458L21.8542 19.7917L20.2917 21.3542L15.0833 16.1458V15.3229L14.8021 15.0417C13.5733 16.0901 12.0111 16.6662 10.3958 16.6667C8.6001 16.6667 6.87791 15.9533 5.60813 14.6835C4.33835 13.4138 3.625 11.6916 3.625 9.89583C3.625 8.1001 4.33835 6.37791 5.60813 5.10813C6.87791 3.83835 8.6001 3.125 10.3958 3.125ZM10.3958 5.20833C7.79167 5.20833 5.70833 7.29167 5.70833 9.89583C5.70833 12.5 7.79167 14.5833 10.3958 14.5833C13 14.5833 15.0833 12.5 15.0833 9.89583C15.0833 7.29167 13 5.20833 10.3958 5.20833Z" fill="#005680"/>
</svg>
