<svg width="25" height="25" viewBox="0 0 25 25" fill="none" xmlns="http://www.w3.org/2000/svg">
<path d="M12.5 0C5.60729 0 0 5.60729 0 12.5C0 19.3927 5.60729 25 12.5 25C19.3927 25 25 19.3927 25 12.5H22.1875C22.1875 17.8417 17.8417 22.1875 12.5 22.1875C7.15833 22.1875 2.8125 17.8417 2.8125 12.5C2.8125 7.15833 7.15833 2.8125 12.5 2.8125V0ZM20.2083 2.69062L12.3906 12.4521L8.7375 9.45833L6.65208 11.9958L11.5906 16.0458C11.7584 16.1842 11.952 16.2878 12.1603 16.3506C12.3685 16.4134 12.5872 16.4341 12.8035 16.4115C13.0198 16.3889 13.2294 16.3235 13.4202 16.219C13.611 16.1146 13.779 15.9732 13.9146 15.8031L22.7729 4.74375L20.2083 2.69062Z" fill="#113F67"/>
</svg>
