<svg width="68" height="49" viewBox="0 0 68 49" fill="none" xmlns="http://www.w3.org/2000/svg">
<path d="M31.25 27C29.5208 27 28.0471 26.3904 26.8287 25.1713C25.6104 23.9521 25.0008 22.4783 25 20.75C25 19.6875 25.2396 18.7083 25.7187 17.8125C26.1979 16.9167 26.8333 16.1875 27.625 15.625C27.9167 15.4167 28.2292 15.3438 28.5625 15.4063C28.8958 15.4688 29.1667 15.6458 29.375 15.9375C29.5833 16.2292 29.6617 16.5417 29.61 16.875C29.5583 17.2083 29.3862 17.4792 29.0937 17.6875C28.6146 18.0417 28.2292 18.4846 27.9375 19.0163C27.6458 19.5479 27.5 20.1258 27.5 20.75C27.5 21.7917 27.8646 22.6771 28.5938 23.4063C29.3229 24.1354 30.2083 24.5 31.25 24.5C31.875 24.5 32.4533 24.3542 32.985 24.0625C33.5167 23.7708 33.9592 23.3854 34.3125 22.9063C34.5208 22.6146 34.7917 22.4425 35.125 22.39C35.4583 22.3375 35.7708 22.4158 36.0625 22.625C36.3542 22.8342 36.5312 23.105 36.5938 23.4375C36.6562 23.77 36.5833 24.0825 36.375 24.375C35.8125 25.1667 35.0833 25.8021 34.1875 26.2813C33.2917 26.7604 32.3125 27 31.25 27ZM41.25 27C40.8958 27 40.5992 26.88 40.36 26.64C40.1208 26.4 40.0008 26.1033 40 25.75V20.75H33.75C33.0625 20.75 32.4742 20.5054 31.985 20.0163C31.4958 19.5271 31.2508 18.9383 31.25 18.25V10.75C31.25 10.0625 31.495 9.47417 31.985 8.98501C32.475 8.49584 33.0633 8.25084 33.75 8.25001C34.25 8.25001 34.6825 8.35959 35.0475 8.57876C35.4125 8.79792 35.8029 9.14668 36.2188 9.62501C37.1562 10.75 38.0054 11.5729 38.7663 12.0938C39.5271 12.6146 40.3446 12.9583 41.2188 13.125C41.5729 13.1875 41.875 13.3438 42.125 13.5938C42.375 13.8438 42.5 14.1458 42.5 14.5C42.5 14.8542 42.37 15.1458 42.11 15.375C41.85 15.6042 41.5529 15.6875 41.2188 15.625C40.3021 15.4583 39.4117 15.1667 38.5475 14.75C37.6833 14.3333 36.9175 13.8542 36.25 13.3125V17.625H40C40.6875 17.625 41.2763 17.87 41.7663 18.36C42.2563 18.85 42.5008 19.4383 42.5 20.125V25.75C42.5 26.1042 42.38 26.4013 42.14 26.6413C41.9 26.8813 41.6033 27.0008 41.25 27ZM33.75 7.00001C33.0625 7.00001 32.4742 6.75542 31.985 6.26626C31.4958 5.77709 31.2508 5.18834 31.25 4.50001C31.2492 3.81167 31.4942 3.22334 31.985 2.73501C32.4758 2.24668 33.0642 2.00168 33.75 2.00001C34.4358 1.99834 35.0246 2.24334 35.5163 2.73501C36.0079 3.22668 36.2525 3.81501 36.25 4.50001C36.2475 5.18501 36.0029 5.77376 35.5163 6.26626C35.0296 6.75876 34.4408 7.00334 33.75 7.00001Z" fill="#113F67"/>
<path d="M9.85864 45.098C9.21464 45.098 8.63597 44.986 8.12264 44.762C7.61864 44.5287 7.22197 44.2113 6.93264 43.81C6.64331 43.3993 6.49397 42.928 6.48464 42.396H7.84264C7.88931 42.8533 8.07597 43.2407 8.40264 43.558C8.73864 43.866 9.22397 44.02 9.85864 44.02C10.4653 44.02 10.9413 43.8707 11.2866 43.572C11.6413 43.264 11.8186 42.872 11.8186 42.396C11.8186 42.0227 11.716 41.7193 11.5106 41.486C11.3053 41.2527 11.0486 41.0753 10.7406 40.954C10.4326 40.8327 10.0173 40.702 9.49464 40.562C8.85064 40.394 8.33264 40.226 7.94064 40.058C7.55797 39.89 7.22664 39.6287 6.94664 39.274C6.67597 38.91 6.54064 38.4247 6.54064 37.818C6.54064 37.286 6.67597 36.8147 6.94664 36.404C7.21731 35.9933 7.59531 35.676 8.08064 35.452C8.57531 35.228 9.13997 35.116 9.77464 35.116C10.6893 35.116 11.436 35.3447 12.0146 35.802C12.6026 36.2593 12.934 36.866 13.0086 37.622H11.6086C11.562 37.2487 11.366 36.922 11.0206 36.642C10.6753 36.3527 10.218 36.208 9.64864 36.208C9.11664 36.208 8.68264 36.348 8.34664 36.628C8.01064 36.8987 7.84264 37.2813 7.84264 37.776C7.84264 38.1307 7.94064 38.42 8.13664 38.644C8.34197 38.868 8.58931 39.0407 8.87864 39.162C9.17731 39.274 9.59264 39.4047 10.1246 39.554C10.7686 39.7313 11.2866 39.9087 11.6786 40.086C12.0706 40.254 12.4066 40.52 12.6866 40.884C12.9666 41.2387 13.1066 41.724 13.1066 42.34C13.1066 42.816 12.9806 43.264 12.7286 43.684C12.4766 44.104 12.1033 44.4447 11.6086 44.706C11.114 44.9673 10.5306 45.098 9.85864 45.098ZM22.2614 40.87C22.2614 41.1127 22.2474 41.3693 22.2194 41.64H16.0874C16.1341 42.396 16.3908 42.9887 16.8574 43.418C17.3334 43.838 17.9074 44.048 18.5794 44.048C19.1301 44.048 19.5874 43.922 19.9514 43.67C20.3248 43.4087 20.5861 43.0633 20.7354 42.634H22.1074C21.9021 43.3713 21.4914 43.9733 20.8754 44.44C20.2594 44.8973 19.4941 45.126 18.5794 45.126C17.8514 45.126 17.1981 44.9627 16.6194 44.636C16.0501 44.3093 15.6021 43.8473 15.2754 43.25C14.9488 42.6433 14.7854 41.9433 14.7854 41.15C14.7854 40.3567 14.9441 39.6613 15.2614 39.064C15.5788 38.4667 16.0221 38.0093 16.5914 37.692C17.1701 37.3653 17.8328 37.202 18.5794 37.202C19.3074 37.202 19.9514 37.3607 20.5114 37.678C21.0714 37.9953 21.5008 38.434 21.7994 38.994C22.1074 39.5447 22.2614 40.17 22.2614 40.87ZM20.9454 40.604C20.9454 40.1187 20.8381 39.7033 20.6234 39.358C20.4088 39.0033 20.1148 38.7373 19.7414 38.56C19.3774 38.3733 18.9714 38.28 18.5234 38.28C17.8794 38.28 17.3288 38.4853 16.8714 38.896C16.4234 39.3067 16.1668 39.876 16.1014 40.604H20.9454ZM25.4971 34.64V45H24.2231V34.64H25.4971ZM31.0704 38.378H29.4604V45H28.1864V38.378H27.1924V37.328H28.1864V36.782C28.1864 35.9233 28.4057 35.298 28.8444 34.906C29.2924 34.5047 30.0064 34.304 30.9864 34.304V35.368C30.4264 35.368 30.0297 35.48 29.7964 35.704C29.5724 35.9187 29.4604 36.278 29.4604 36.782V37.328H31.0704V38.378ZM42.8542 35.242V36.278H40.1942V45H38.9202V36.278H36.2462V35.242H42.8542ZM45.9765 38.574C46.2005 38.1353 46.5178 37.7947 46.9285 37.552C47.3485 37.3093 47.8571 37.188 48.4545 37.188V38.504H48.1185C46.6905 38.504 45.9765 39.2787 45.9765 40.828V45H44.7025V37.328H45.9765V38.574ZM50.8631 36.082C50.6204 36.082 50.4151 35.998 50.2471 35.83C50.0791 35.662 49.9951 35.4567 49.9951 35.214C49.9951 34.9713 50.0791 34.766 50.2471 34.598C50.4151 34.43 50.6204 34.346 50.8631 34.346C51.0964 34.346 51.2924 34.43 51.4511 34.598C51.6191 34.766 51.7031 34.9713 51.7031 35.214C51.7031 35.4567 51.6191 35.662 51.4511 35.83C51.2924 35.998 51.0964 36.082 50.8631 36.082ZM51.4791 37.328V45H50.2051V37.328H51.4791ZM55.2044 38.742C55.4564 38.3033 55.8298 37.9393 56.3244 37.65C56.8284 37.3513 57.4118 37.202 58.0744 37.202C58.7558 37.202 59.3718 37.3653 59.9224 37.692C60.4824 38.0187 60.9211 38.4807 61.2384 39.078C61.5558 39.666 61.7144 40.352 61.7144 41.136C61.7144 41.9107 61.5558 42.6013 61.2384 43.208C60.9211 43.8147 60.4824 44.286 59.9224 44.622C59.3718 44.958 58.7558 45.126 58.0744 45.126C57.4211 45.126 56.8424 44.9813 56.3384 44.692C55.8438 44.3933 55.4658 44.0247 55.2044 43.586V48.64H53.9304V37.328H55.2044V38.742ZM60.4124 41.136C60.4124 40.5573 60.2958 40.0533 60.0624 39.624C59.8291 39.1947 59.5118 38.868 59.1104 38.644C58.7184 38.42 58.2844 38.308 57.8084 38.308C57.3418 38.308 56.9078 38.4247 56.5064 38.658C56.1144 38.882 55.7971 39.2133 55.5544 39.652C55.3211 40.0813 55.2044 40.5807 55.2044 41.15C55.2044 41.7287 55.3211 42.2373 55.5544 42.676C55.7971 43.1053 56.1144 43.4367 56.5064 43.67C56.9078 43.894 57.3418 44.006 57.8084 44.006C58.2844 44.006 58.7184 43.894 59.1104 43.67C59.5118 43.4367 59.8291 43.1053 60.0624 42.676C60.2958 42.2373 60.4124 41.724 60.4124 41.136Z" fill="#113F67"/>
</svg>
