<svg width="14" height="19" viewBox="0 0 14 19" fill="none" xmlns="http://www.w3.org/2000/svg">
<path d="M4.98324 18.8001C3.71518 18.8001 2.63443 18.3531 1.74099 17.4591C0.847541 16.565 0.400513 15.4842 0.399902 14.2168C0.399902 13.4376 0.575597 12.7196 0.926985 12.0626C1.27837 11.4057 1.74435 10.871 2.3249 10.4585C2.53879 10.3057 2.76796 10.2522 3.0124 10.2981C3.25685 10.3439 3.45546 10.4737 3.60824 10.6876C3.76101 10.9015 3.81846 11.1307 3.78057 11.3751C3.74268 11.6196 3.61648 11.8182 3.40198 11.971C3.0506 12.2307 2.76796 12.5555 2.55407 12.9454C2.34018 13.3353 2.23324 13.7591 2.23324 14.2168C2.23324 14.9807 2.5006 15.63 3.03532 16.1647C3.57004 16.6994 4.21935 16.9668 4.98324 16.9668C5.44157 16.9668 5.86568 16.8599 6.25557 16.646C6.64546 16.4321 6.96996 16.1494 7.22907 15.7981C7.38185 15.5842 7.58046 15.458 7.8249 15.4195C8.06935 15.381 8.29851 15.4384 8.5124 15.5918C8.72629 15.7452 8.85615 15.9438 8.90198 16.1876C8.94782 16.4315 8.89435 16.6606 8.74157 16.8751C8.32907 17.4557 7.79435 17.9217 7.1374 18.2731C6.48046 18.6244 5.7624 18.8001 4.98324 18.8001ZM12.3166 18.8001C12.0568 18.8001 11.8393 18.7121 11.6639 18.5361C11.4885 18.3601 11.4005 18.1426 11.3999 17.8835V14.2168H6.81657C6.3124 14.2168 5.88096 14.0374 5.52224 13.6787C5.16351 13.32 4.98385 12.8882 4.98324 12.3835V6.88347C4.98324 6.3793 5.1629 5.94786 5.52224 5.58914C5.88157 5.23041 6.31301 5.05075 6.81657 5.05014C7.18324 5.05014 7.5004 5.1305 7.76807 5.29122C8.03574 5.45194 8.32204 5.70769 8.62699 6.05847C9.31448 6.88347 9.93721 7.48694 10.4952 7.86889C11.0531 8.25083 11.6526 8.50291 12.2937 8.62514C12.5534 8.67097 12.7749 8.78555 12.9582 8.96889C13.1416 9.15222 13.2332 9.37375 13.2332 9.63347C13.2332 9.89319 13.1379 10.1071 12.9472 10.2751C12.7566 10.4432 12.5387 10.5043 12.2937 10.4585C11.6214 10.3362 10.9685 10.1224 10.3347 9.8168C9.70101 9.51125 9.1394 9.15986 8.6499 8.76264V11.9251H11.3999C11.9041 11.9251 12.3358 12.1048 12.6952 12.4641C13.0545 12.8235 13.2338 13.2549 13.2332 13.7585V17.8835C13.2332 18.1432 13.1452 18.3611 12.9692 18.5371C12.7932 18.7131 12.5757 18.8007 12.3166 18.8001ZM6.81657 4.13347C6.3124 4.13347 5.88096 3.95411 5.52224 3.59539C5.16351 3.23666 4.98385 2.80491 4.98324 2.30014C4.98262 1.79536 5.16229 1.36391 5.52224 1.0058C5.88218 0.647692 6.31362 0.468025 6.81657 0.466803C7.31951 0.465581 7.75126 0.645248 8.11182 1.0058C8.47237 1.36636 8.65173 1.7978 8.6499 2.30014C8.64807 2.80247 8.46871 3.23422 8.11182 3.59539C7.75493 3.95655 7.32318 4.13591 6.81657 4.13347Z" fill="#113F67"/>
</svg>
