<svg width="30" height="30" viewBox="0 0 30 30" fill="none" xmlns="http://www.w3.org/2000/svg">
<path d="M12.25 27C10.5208 27 9.04708 26.3904 7.82875 25.1713C6.61042 23.9521 6.00083 22.4783 6 20.75C6 19.6875 6.23958 18.7083 6.71875 17.8125C7.19792 16.9167 7.83333 16.1875 8.625 15.625C8.91667 15.4167 9.22917 15.3438 9.5625 15.4063C9.89583 15.4688 10.1667 15.6458 10.375 15.9375C10.5833 16.2292 10.6617 16.5417 10.61 16.875C10.5583 17.2083 10.3862 17.4792 10.0937 17.6875C9.61458 18.0417 9.22917 18.4846 8.9375 19.0163C8.64583 19.5479 8.5 20.1258 8.5 20.75C8.5 21.7917 8.86458 22.6771 9.59375 23.4063C10.3229 24.1354 11.2083 24.5 12.25 24.5C12.875 24.5 13.4533 24.3542 13.985 24.0625C14.5167 23.7708 14.9592 23.3854 15.3125 22.9063C15.5208 22.6146 15.7917 22.4425 16.125 22.39C16.4583 22.3375 16.7708 22.4158 17.0625 22.625C17.3542 22.8342 17.5312 23.105 17.5938 23.4375C17.6562 23.77 17.5833 24.0825 17.375 24.375C16.8125 25.1667 16.0833 25.8021 15.1875 26.2813C14.2917 26.7604 13.3125 27 12.25 27ZM22.25 27C21.8958 27 21.5992 26.88 21.36 26.64C21.1208 26.4 21.0008 26.1033 21 25.75V20.75H14.75C14.0625 20.75 13.4742 20.5054 12.985 20.0163C12.4958 19.5271 12.2508 18.9383 12.25 18.25V10.75C12.25 10.0625 12.495 9.47417 12.985 8.98501C13.475 8.49584 14.0633 8.25084 14.75 8.25001C15.25 8.25001 15.6825 8.35959 16.0475 8.57876C16.4125 8.79792 16.8029 9.14668 17.2188 9.62501C18.1562 10.75 19.0054 11.5729 19.7663 12.0938C20.5271 12.6146 21.3446 12.9583 22.2188 13.125C22.5729 13.1875 22.875 13.3438 23.125 13.5938C23.375 13.8438 23.5 14.1458 23.5 14.5C23.5 14.8542 23.37 15.1458 23.11 15.375C22.85 15.6042 22.5529 15.6875 22.2188 15.625C21.3021 15.4583 20.4117 15.1667 19.5475 14.75C18.6833 14.3333 17.9175 13.8542 17.25 13.3125V17.625H21C21.6875 17.625 22.2763 17.87 22.7663 18.36C23.2563 18.85 23.5008 19.4383 23.5 20.125V25.75C23.5 26.1042 23.38 26.4013 23.14 26.6413C22.9 26.8813 22.6033 27.0008 22.25 27ZM14.75 7.00001C14.0625 7.00001 13.4742 6.75542 12.985 6.26626C12.4958 5.77709 12.2508 5.18834 12.25 4.50001C12.2492 3.81167 12.4942 3.22334 12.985 2.73501C13.4758 2.24668 14.0642 2.00168 14.75 2.00001C15.4358 1.99834 16.0246 2.24334 16.5163 2.73501C17.0079 3.22668 17.2525 3.81501 17.25 4.50001C17.2475 5.18501 17.0029 5.77376 16.5163 6.26626C16.0296 6.75876 15.4408 7.00334 14.75 7.00001Z" fill="#113F67"/>
</svg>
