<svg width="30" height="31" viewBox="0 0 30 31" fill="none" xmlns="http://www.w3.org/2000/svg">
<path d="M15 2.375C18.481 2.375 21.8194 3.75781 24.2808 6.21922C26.7422 8.68064 28.125 12.019 28.125 15.5C28.125 18.981 26.7422 22.3194 24.2808 24.7808C21.8194 27.2422 18.481 28.625 15 28.625C11.519 28.625 8.18064 27.2422 5.71922 24.7808C3.25781 22.3194 1.875 18.981 1.875 15.5C1.875 12.019 3.25781 8.68064 5.71922 6.21922C8.18064 3.75781 11.519 2.375 15 2.375ZM13.365 18.0894L10.4494 15.1719C10.3449 15.0674 10.2208 14.9844 10.0842 14.9279C9.94763 14.8713 9.80126 14.8422 9.65344 14.8422C9.50562 14.8422 9.35925 14.8713 9.22268 14.9279C9.08611 14.9844 8.96202 15.0674 8.8575 15.1719C8.6464 15.383 8.52781 15.6693 8.52781 15.9678C8.52781 16.2663 8.6464 16.5527 8.8575 16.7638L12.57 20.4762C12.6742 20.5813 12.7982 20.6647 12.9348 20.7216C13.0714 20.7785 13.218 20.8078 13.3659 20.8078C13.5139 20.8078 13.6604 20.7785 13.7971 20.7216C13.9337 20.6647 14.0576 20.5813 14.1619 20.4762L21.8494 12.7869C21.9553 12.6828 22.0396 12.5588 22.0973 12.4219C22.1551 12.2851 22.1851 12.1382 22.1858 11.9897C22.1865 11.8412 22.1578 11.694 22.1013 11.5567C22.0449 11.4193 21.9618 11.2945 21.8568 11.1895C21.7519 11.0844 21.6271 11.0011 21.4899 10.9445C21.3526 10.8879 21.2054 10.859 21.0569 10.8595C20.9084 10.86 20.7615 10.8899 20.6246 10.9475C20.4877 11.0051 20.3636 11.0892 20.2594 11.195L13.365 18.0894Z" fill="#20833F"/>
</svg>
