<svg width="30" height="30" viewBox="0 0 30 30" fill="none" xmlns="http://www.w3.org/2000/svg">
<path d="M7.02 23.75H17.5V17.5H23.75V7.02C23.75 6.795 23.6779 6.61042 23.5337 6.46625C23.3896 6.32208 23.2054 6.25 22.9813 6.25H7.01875C6.79458 6.25 6.61042 6.32208 6.46625 6.46625C6.32208 6.61042 6.25 6.795 6.25 7.02V22.9813C6.25 23.2054 6.32208 23.3896 6.46625 23.5337C6.61042 23.6779 6.795 23.75 7.02 23.75ZM7.02 25C6.46 25 5.98333 24.8033 5.59 24.41C5.19667 24.0167 5 23.5404 5 22.9813V7.01875C5 6.46042 5.19667 5.98417 5.59 5.59C5.98333 5.19667 6.46 5 7.02 5H22.9813C23.5396 5 24.0158 5.19667 24.41 5.59C24.8033 5.98333 25 6.46 25 7.02V17.8612L17.86 25H7.02ZM9.85625 16.8263V15.5763H15V16.8263H9.85625ZM9.85625 11.875V10.625H20.1437V11.875H9.85625Z" fill="#113F67"/>
</svg>
