<svg width="24" height="24" viewBox="0 0 24 24" fill="none" xmlns="http://www.w3.org/2000/svg">
<path d="M3 0C2.20435 0 1.44129 0.31607 0.87868 0.87868C0.31607 1.44129 0 2.20435 0 3V22.5C0 22.8978 0.158035 23.2794 0.43934 23.5607C0.720644 23.842 1.10218 24 1.5 24H12.75C12.9489 24 13.1397 23.921 13.2803 23.7803C13.421 23.6397 13.5 23.4489 13.5 23.25V20.25C13.5 20.0511 13.579 19.8603 13.7197 19.7197C13.8603 19.579 14.0511 19.5 14.25 19.5H18.75C18.9489 19.5 19.1397 19.579 19.2803 19.7197C19.421 19.8603 19.5 20.0511 19.5 20.25V23.25C19.5 23.4489 19.579 23.6397 19.7197 23.7803C19.8603 23.921 20.0511 24 20.25 24H22.5C22.8978 24 23.2794 23.842 23.5607 23.5607C23.842 23.2794 24 22.8978 24 22.5V7.5C24 6.70435 23.6839 5.94129 23.1213 5.37868C22.5587 4.81607 21.7956 4.5 21 4.5H15V3C15 2.20435 14.6839 1.44129 14.1213 0.87868C13.5587 0.31607 12.7956 0 12 0H3ZM13.5 4.5H12C11.2044 4.5 10.4413 4.81607 9.87868 5.37868C9.31607 5.94129 9 6.70435 9 7.5V22.5H1.5V3C1.5 2.60218 1.65804 2.22064 1.93934 1.93934C2.22064 1.65804 2.60218 1.5 3 1.5H12C12.3978 1.5 12.7794 1.65804 13.0607 1.93934C13.342 2.22064 13.5 2.60218 13.5 3V4.5ZM4.875 11.25C5.17337 11.25 5.45952 11.1315 5.6705 10.9205C5.88147 10.7095 6 10.4234 6 10.125C6 9.82663 5.88147 9.54048 5.6705 9.32951C5.45952 9.11853 5.17337 9 4.875 9C4.57663 9 4.29048 9.11853 4.0795 9.32951C3.86853 9.54048 3.75 9.82663 3.75 10.125C3.75 10.4234 3.86853 10.7095 4.0795 10.9205C4.29048 11.1315 4.57663 11.25 4.875 11.25ZM6 5.625C6 5.92337 5.88147 6.20952 5.6705 6.4205C5.45952 6.63147 5.17337 6.75 4.875 6.75C4.57663 6.75 4.29048 6.63147 4.0795 6.4205C3.86853 6.20952 3.75 5.92337 3.75 5.625C3.75 5.32663 3.86853 5.04048 4.0795 4.8295C4.29048 4.61853 4.57663 4.5 4.875 4.5C5.17337 4.5 5.45952 4.61853 5.6705 4.8295C5.88147 5.04048 6 5.32663 6 5.625ZM4.875 20.25C5.17337 20.25 5.45952 20.1315 5.6705 19.9205C5.88147 19.7095 6 19.4234 6 19.125C6 18.8266 5.88147 18.5405 5.6705 18.3295C5.45952 18.1185 5.17337 18 4.875 18C4.57663 18 4.29048 18.1185 4.0795 18.3295C3.86853 18.5405 3.75 18.8266 3.75 19.125C3.75 19.4234 3.86853 19.7095 4.0795 19.9205C4.29048 20.1315 4.57663 20.25 4.875 20.25ZM6 14.625C6 14.9234 5.88147 15.2095 5.6705 15.4205C5.45952 15.6315 5.17337 15.75 4.875 15.75C4.57663 15.75 4.29048 15.6315 4.0795 15.4205C3.86853 15.2095 3.75 14.9234 3.75 14.625C3.75 14.3266 3.86853 14.0405 4.0795 13.8295C4.29048 13.6185 4.57663 13.5 4.875 13.5C5.17337 13.5 5.45952 13.6185 5.6705 13.8295C5.88147 14.0405 6 14.3266 6 14.625ZM13.875 11.25C13.5766 11.25 13.2905 11.1315 13.0795 10.9205C12.8685 10.7095 12.75 10.4234 12.75 10.125C12.75 9.82663 12.8685 9.54048 13.0795 9.32951C13.2905 9.11853 13.5766 9 13.875 9C14.1734 9 14.4595 9.11853 14.6705 9.32951C14.8815 9.54048 15 9.82663 15 10.125C15 10.4234 14.8815 10.7095 14.6705 10.9205C14.4595 11.1315 14.1734 11.25 13.875 11.25ZM15 14.625C15 14.9234 14.8815 15.2095 14.6705 15.4205C14.4595 15.6315 14.1734 15.75 13.875 15.75C13.5766 15.75 13.2905 15.6315 13.0795 15.4205C12.8685 15.2095 12.75 14.9234 12.75 14.625C12.75 14.3266 12.8685 14.0405 13.0795 13.8295C13.2905 13.6185 13.5766 13.5 13.875 13.5C14.1734 13.5 14.4595 13.6185 14.6705 13.8295C14.8815 14.0405 15 14.3266 15 14.625ZM19.125 11.25C18.8266 11.25 18.5405 11.1315 18.3295 10.9205C18.1185 10.7095 18 10.4234 18 10.125C18 9.82663 18.1185 9.54048 18.3295 9.32951C18.5405 9.11853 18.8266 9 19.125 9C19.4234 9 19.7095 9.11853 19.9205 9.32951C20.1315 9.54048 20.25 9.82663 20.25 10.125C20.25 10.4234 20.1315 10.7095 19.9205 10.9205C19.7095 11.1315 19.4234 11.25 19.125 11.25ZM20.25 14.625C20.25 14.9234 20.1315 15.2095 19.9205 15.4205C19.7095 15.6315 19.4234 15.75 19.125 15.75C18.8266 15.75 18.5405 15.6315 18.3295 15.4205C18.1185 15.2095 18 14.9234 18 14.625C18 14.3266 18.1185 14.0405 18.3295 13.8295C18.5405 13.6185 18.8266 13.5 19.125 13.5C19.4234 13.5 19.7095 13.6185 19.9205 13.8295C20.1315 14.0405 20.25 14.3266 20.25 14.625Z" fill="#005680"/>
</svg>
