<svg width="40" height="40" viewBox="0 0 40 40" fill="none" xmlns="http://www.w3.org/2000/svg">
<path d="M5.00065 34.9998C4.52843 34.9998 4.13287 34.8398 3.81398 34.5198C3.4951 34.1998 3.3351 33.8043 3.33398 33.3332V19.9998L6.83398 9.99984C7.00065 9.49984 7.29954 9.09706 7.73065 8.7915C8.16176 8.48595 8.64065 8.33317 9.16732 8.33317H15.0007V10.6248C15.0007 10.7915 15.0079 10.9654 15.0223 11.1465C15.0368 11.3276 15.0573 11.5009 15.084 11.6665H9.75065L8.00065 16.6665H18.6257L24.209 22.2498C23.9312 22.4721 23.7162 22.7498 23.564 23.0832C23.4118 23.4165 23.3351 23.7776 23.334 24.1665C23.334 24.8609 23.5773 25.4515 24.064 25.9382C24.5507 26.4248 25.1407 26.6676 25.834 26.6665C26.3895 26.6665 26.8895 26.4998 27.334 26.1665C27.7784 25.8332 28.0701 25.4026 28.209 24.8748C28.5145 24.9304 28.8129 24.9721 29.104 24.9998C29.3951 25.0276 29.694 25.0137 30.0007 24.9582C30.6118 24.9026 31.2023 24.7498 31.7723 24.4998C32.3423 24.2498 32.8629 23.9026 33.334 23.4582V33.3332C33.334 33.8054 33.174 34.2015 32.854 34.5215C32.534 34.8415 32.1384 35.0009 31.6673 34.9998H30.0007C29.5284 34.9998 29.1329 34.8398 28.814 34.5198C28.4951 34.1998 28.3351 33.8043 28.334 33.3332V31.6665H8.33398V33.3332C8.33398 33.8054 8.17398 34.2015 7.85398 34.5215C7.53398 34.8415 7.13843 35.0009 6.66732 34.9998H5.00065ZM10.834 26.6665C11.5284 26.6665 12.119 26.4237 12.6057 25.9382C13.0923 25.4526 13.3351 24.8621 13.334 24.1665C13.3329 23.4709 13.0901 22.8809 12.6057 22.3965C12.1212 21.9121 11.5307 21.6687 10.834 21.6665C10.1373 21.6643 9.54732 21.9076 9.06398 22.3965C8.58065 22.8854 8.33732 23.4754 8.33398 24.1665C8.33065 24.8576 8.57399 25.4482 9.06398 25.9382C9.55399 26.4282 10.144 26.6709 10.834 26.6665ZM27.584 20.9165L19.084 12.4165C18.8618 12.1943 18.6812 11.9232 18.5423 11.6032C18.4034 11.2832 18.334 10.9576 18.334 10.6265V4.1665C18.334 3.47206 18.5773 2.88206 19.064 2.3965C19.5507 1.91095 20.1407 1.66762 20.834 1.6665H27.2923C27.6257 1.6665 27.9523 1.73595 28.2723 1.87484C28.5923 2.01373 28.8629 2.19428 29.084 2.4165L37.584 10.9165C38.0562 11.3887 38.2923 11.9793 38.2923 12.6882C38.2923 13.3971 38.0562 13.9871 37.584 14.4582L31.1257 20.9165C30.6534 21.3887 30.0634 21.6248 29.3557 21.6248C28.6479 21.6248 28.0573 21.3887 27.584 20.9165ZM25.0007 9.99984C25.4729 9.99984 25.869 9.83984 26.189 9.51984C26.509 9.19984 26.6684 8.80428 26.6673 8.33317C26.6662 7.86206 26.5062 7.4665 26.1873 7.1465C25.8684 6.8265 25.4729 6.6665 25.0007 6.6665C24.5284 6.6665 24.1329 6.8265 23.814 7.1465C23.4951 7.4665 23.3351 7.86206 23.334 8.33317C23.3329 8.80428 23.4929 9.20039 23.814 9.5215C24.1351 9.84261 24.5307 10.0021 25.0007 9.99984Z" fill="#113F67"/>
</svg>
