<svg width="24" height="24" viewBox="0 0 24 24" fill="none" xmlns="http://www.w3.org/2000/svg">
<path d="M12 2L9.3875 4.6125L12 7.225M2.3375 0.75L0.75 2.3375L6.6625 8.25H0.75V15.75H5.75L12 22V13.5875L17.3125 18.9125C16.475 19.55 15.5375 20.075 14.5 20.375V22.9625C16.225 22.5625 17.7875 21.775 19.1 20.7L21.6625 23.25L23.25 21.6625L12 10.4125M20.75 12C20.75 13.175 20.5 14.275 20.075 15.3L21.9625 17.1875C22.8068 15.5887 23.2488 13.8081 23.25 12C23.25 6.65 19.5 2.175 14.5 1.0375V3.6125C18.1125 4.6875 20.75 8.0375 20.75 12ZM17.625 12C17.625 9.7875 16.375 7.8875 14.5 6.9625V9.725L17.5625 12.7875C17.625 12.5375 17.625 12.2625 17.625 12Z" fill="#005680"/>
</svg>
