<svg width="60" height="60" viewBox="0 0 60 60" fill="none" xmlns="http://www.w3.org/2000/svg">
<path d="M60 37.5021V55.0021C60 56.3281 59.4732 57.5998 58.5355 58.5376C57.5977 59.4751 56.326 60.0021 55 60.0021H5C3.67392 60.0021 2.40215 59.4751 1.46448 58.5376C0.526775 57.5998 0 56.3281 0 55.0021V37.5021C0 36.8388 0.2634 36.2031 0.732225 35.7341C1.20108 35.2653 1.83695 35.0021 2.5 35.0021C3.16305 35.0021 3.79892 35.2653 4.26777 35.7341C4.7366 36.2031 5 36.8388 5 37.5021V55.0021H55V37.5021C55 36.8388 55.2635 36.2031 55.7323 35.7341C56.201 35.2653 56.837 35.0021 57.5 35.0021C58.163 35.0021 58.799 35.2653 59.2677 35.7341C59.7365 36.2031 60 36.8388 60 37.5021ZM19.2688 16.7708L27.5 8.53632V37.5021C27.5 38.1651 27.7635 38.8008 28.2323 39.2698C28.701 39.7386 29.337 40.0021 30 40.0021C30.663 40.0021 31.299 39.7386 31.7677 39.2698C32.2365 38.8008 32.5 38.1651 32.5 37.5021V8.53632L40.7312 16.7708C41.2002 17.2398 41.8365 17.5033 42.5 17.5033C43.1635 17.5033 43.7998 17.2398 44.2688 16.7708C44.7378 16.3016 45.0015 15.6653 45.0015 15.0021C45.0015 14.3386 44.7378 13.7023 44.2688 13.2332L31.7688 0.7332C31.5365 0.500775 31.2608 0.316375 30.9573 0.19055C30.6538 0.0647501 30.3285 0 30 0C29.6715 0 29.3462 0.0647501 29.0427 0.19055C28.7392 0.316375 28.4635 0.500775 28.2312 0.7332L15.7312 13.2332C15.2622 13.7023 14.9986 14.3386 14.9986 15.0021C14.9986 15.6653 15.2622 16.3016 15.7312 16.7708C16.2002 17.2398 16.8365 17.5033 17.5 17.5033C18.1635 17.5033 18.7998 17.2398 19.2688 16.7708Z" fill="#005581"/>
</svg>
