<svg width="84" height="51" viewBox="0 0 84 51" fill="none" xmlns="http://www.w3.org/2000/svg">
<path d="M42 15C42.6875 15 43.2762 14.7554 43.7663 14.2663C44.2563 13.7771 44.5008 13.1883 44.5 12.5C44.4992 11.8117 44.2546 11.2233 43.7663 10.735C43.2779 10.2467 42.6892 10.0017 42 10C41.3108 9.99833 40.7225 10.2433 40.235 10.735C39.7475 11.2267 39.5025 11.815 39.5 12.5C39.4975 13.185 39.7425 13.7738 40.235 14.2663C40.7275 14.7587 41.3158 15.0033 42 15ZM42 24.1875C44.5417 21.8542 46.4271 19.7346 47.6562 17.8287C48.8854 15.9229 49.5 14.23 49.5 12.75C49.5 10.4792 48.7763 8.62 47.3288 7.1725C45.8813 5.725 44.105 5.00083 42 5C39.895 4.99917 38.1192 5.72333 36.6725 7.1725C35.2258 8.62167 34.5017 10.4808 34.5 12.75C34.5 14.2292 35.1146 15.9221 36.3438 17.8287C37.5729 19.7354 39.4583 21.855 42 24.1875ZM42 27.5C38.6458 24.6458 36.1408 21.995 34.485 19.5475C32.8292 17.1 32.0008 14.8342 32 12.75C32 9.625 33.0054 7.13542 35.0163 5.28125C37.0271 3.42708 39.355 2.5 42 2.5C44.645 2.5 46.9733 3.42708 48.985 5.28125C50.9967 7.13542 52.0017 9.625 52 12.75C52 14.8333 51.1721 17.0992 49.5163 19.5475C47.8604 21.9958 45.355 24.6467 42 27.5Z" fill="#113F67"/>
<path d="M9.55352 37.242L5.87152 47H4.40152L0.719522 37.242H2.07752L5.14352 45.656L8.20952 37.242H9.55352ZM10.7545 43.136C10.7545 42.352 10.9131 41.666 11.2305 41.078C11.5478 40.4807 11.9818 40.0187 12.5325 39.692C13.0925 39.3653 13.7131 39.202 14.3945 39.202C15.0665 39.202 15.6498 39.3467 16.1445 39.636C16.6391 39.9253 17.0078 40.2893 17.2505 40.728V39.328H18.5385V47H17.2505V45.572C16.9985 46.02 16.6205 46.3933 16.1165 46.692C15.6218 46.9813 15.0431 47.126 14.3805 47.126C13.6991 47.126 13.0831 46.958 12.5325 46.622C11.9818 46.286 11.5478 45.8147 11.2305 45.208C10.9131 44.6013 10.7545 43.9107 10.7545 43.136ZM17.2505 43.15C17.2505 42.5713 17.1338 42.0673 16.9005 41.638C16.6671 41.2087 16.3498 40.882 15.9485 40.658C15.5565 40.4247 15.1225 40.308 14.6465 40.308C14.1705 40.308 13.7365 40.42 13.3445 40.644C12.9525 40.868 12.6398 41.1947 12.4065 41.624C12.1731 42.0533 12.0565 42.5573 12.0565 43.136C12.0565 43.724 12.1731 44.2373 12.4065 44.676C12.6398 45.1053 12.9525 45.4367 13.3445 45.67C13.7365 45.894 14.1705 46.006 14.6465 46.006C15.1225 46.006 15.5565 45.894 15.9485 45.67C16.3498 45.4367 16.6671 45.1053 16.9005 44.676C17.1338 44.2373 17.2505 43.7287 17.2505 43.15ZM20.4954 43.15C20.4954 42.3567 20.6541 41.666 20.9714 41.078C21.2887 40.4807 21.7274 40.0187 22.2874 39.692C22.8567 39.3653 23.5054 39.202 24.2334 39.202C25.1761 39.202 25.9507 39.4307 26.5574 39.888C27.1734 40.3453 27.5794 40.98 27.7754 41.792H26.4034C26.2727 41.3253 26.0161 40.9567 25.6334 40.686C25.2601 40.4153 24.7934 40.28 24.2334 40.28C23.5054 40.28 22.9174 40.532 22.4694 41.036C22.0214 41.5307 21.7974 42.2353 21.7974 43.15C21.7974 44.074 22.0214 44.788 22.4694 45.292C22.9174 45.796 23.5054 46.048 24.2334 46.048C24.7934 46.048 25.2601 45.9173 25.6334 45.656C26.0067 45.3947 26.2634 45.0213 26.4034 44.536H27.7754C27.5701 45.32 27.1594 45.95 26.5434 46.426C25.9274 46.8927 25.1574 47.126 24.2334 47.126C23.5054 47.126 22.8567 46.9627 22.2874 46.636C21.7274 46.3093 21.2887 45.8473 20.9714 45.25C20.6541 44.6527 20.4954 43.9527 20.4954 43.15ZM29.2793 43.136C29.2793 42.352 29.438 41.666 29.7553 41.078C30.0726 40.4807 30.5066 40.0187 31.0573 39.692C31.6173 39.3653 32.238 39.202 32.9193 39.202C33.5913 39.202 34.1746 39.3467 34.6693 39.636C35.164 39.9253 35.5326 40.2893 35.7753 40.728V39.328H37.0633V47H35.7753V45.572C35.5233 46.02 35.1453 46.3933 34.6413 46.692C34.1466 46.9813 33.568 47.126 32.9053 47.126C32.224 47.126 31.608 46.958 31.0573 46.622C30.5066 46.286 30.0726 45.8147 29.7553 45.208C29.438 44.6013 29.2793 43.9107 29.2793 43.136ZM35.7753 43.15C35.7753 42.5713 35.6586 42.0673 35.4253 41.638C35.192 41.2087 34.8746 40.882 34.4733 40.658C34.0813 40.4247 33.6473 40.308 33.1713 40.308C32.6953 40.308 32.2613 40.42 31.8693 40.644C31.4773 40.868 31.1646 41.1947 30.9313 41.624C30.698 42.0533 30.5813 42.5573 30.5813 43.136C30.5813 43.724 30.698 44.2373 30.9313 44.676C31.1646 45.1053 31.4773 45.4367 31.8693 45.67C32.2613 45.894 32.6953 46.006 33.1713 46.006C33.6473 46.006 34.0813 45.894 34.4733 45.67C34.8746 45.4367 35.192 45.1053 35.4253 44.676C35.6586 44.2373 35.7753 43.7287 35.7753 43.15ZM43.2342 39.188C44.1676 39.188 44.9236 39.4727 45.5022 40.042C46.0809 40.602 46.3702 41.414 46.3702 42.478V47H45.1102V42.66C45.1102 41.8947 44.9189 41.3113 44.5362 40.91C44.1536 40.4993 43.6309 40.294 42.9682 40.294C42.2962 40.294 41.7596 40.504 41.3582 40.924C40.9662 41.344 40.7702 41.9553 40.7702 42.758V47H39.4962V39.328H40.7702V40.42C41.0222 40.028 41.3629 39.7247 41.7922 39.51C42.2309 39.2953 42.7116 39.188 43.2342 39.188ZM50.2853 40.378V44.9C50.2853 45.2733 50.3647 45.5393 50.5233 45.698C50.682 45.8473 50.9573 45.922 51.3493 45.922H52.2873V47H51.1393C50.43 47 49.898 46.8367 49.5433 46.51C49.1887 46.1833 49.0113 45.6467 49.0113 44.9V40.378H48.0173V39.328H49.0113V37.396H50.2853V39.328H52.2873V40.378H50.2853ZM64.1293 37.242V38.278H61.4693V47H60.1953V38.278H57.5213V37.242H64.1293ZM67.2516 40.574C67.4756 40.1353 67.7929 39.7947 68.2036 39.552C68.6236 39.3093 69.1322 39.188 69.7296 39.188V40.504H69.3936C67.9656 40.504 67.2516 41.2787 67.2516 42.828V47H65.9776V39.328H67.2516V40.574ZM72.1382 38.082C71.8956 38.082 71.6902 37.998 71.5222 37.83C71.3542 37.662 71.2702 37.4567 71.2702 37.214C71.2702 36.9713 71.3542 36.766 71.5222 36.598C71.6902 36.43 71.8956 36.346 72.1382 36.346C72.3716 36.346 72.5676 36.43 72.7262 36.598C72.8942 36.766 72.9782 36.9713 72.9782 37.214C72.9782 37.4567 72.8942 37.662 72.7262 37.83C72.5676 37.998 72.3716 38.082 72.1382 38.082ZM72.7542 39.328V47H71.4802V39.328H72.7542ZM76.4795 40.742C76.7315 40.3033 77.1049 39.9393 77.5995 39.65C78.1035 39.3513 78.6869 39.202 79.3495 39.202C80.0309 39.202 80.6469 39.3653 81.1975 39.692C81.7575 40.0187 82.1962 40.4807 82.5135 41.078C82.8309 41.666 82.9895 42.352 82.9895 43.136C82.9895 43.9107 82.8309 44.6013 82.5135 45.208C82.1962 45.8147 81.7575 46.286 81.1975 46.622C80.6469 46.958 80.0309 47.126 79.3495 47.126C78.6962 47.126 78.1175 46.9813 77.6135 46.692C77.1189 46.3933 76.7409 46.0247 76.4795 45.586V50.64H75.2055V39.328H76.4795V40.742ZM81.6875 43.136C81.6875 42.5573 81.5709 42.0533 81.3375 41.624C81.1042 41.1947 80.7869 40.868 80.3855 40.644C79.9935 40.42 79.5595 40.308 79.0835 40.308C78.6169 40.308 78.1829 40.4247 77.7815 40.658C77.3895 40.882 77.0722 41.2133 76.8295 41.652C76.5962 42.0813 76.4795 42.5807 76.4795 43.15C76.4795 43.7287 76.5962 44.2373 76.8295 44.676C77.0722 45.1053 77.3895 45.4367 77.7815 45.67C78.1829 45.894 78.6169 46.006 79.0835 46.006C79.5595 46.006 79.9935 45.894 80.3855 45.67C80.7869 45.4367 81.1042 45.1053 81.3375 44.676C81.5709 44.2373 81.6875 43.724 81.6875 43.136Z" fill="#113F67"/>
</svg>
