<svg width="40" height="40" viewBox="0 0 40 40" fill="none" xmlns="http://www.w3.org/2000/svg">
<path d="M10 31.6668V33.3335C10 33.8057 9.84 34.2018 9.52 34.5218C9.2 34.8418 8.80444 35.0013 8.33333 35.0002H6.66667C6.19444 35.0002 5.79889 34.8402 5.48 34.5202C5.16111 34.2002 5.00111 33.8046 5 33.3335V20.0002L8.5 10.0002C8.66667 9.50016 8.96556 9.09739 9.39667 8.79183C9.82778 8.48627 10.3067 8.3335 10.8333 8.3335H29.1667C29.6944 8.3335 30.1739 8.48627 30.605 8.79183C31.0361 9.09739 31.3344 9.50016 31.5 10.0002L35 20.0002V33.3335C35 33.8057 34.8406 34.2018 34.5217 34.5218C34.2028 34.8418 33.8067 35.0013 33.3333 35.0002H31.6667C31.1944 35.0002 30.7989 34.8402 30.48 34.5202C30.1611 34.2002 30.0011 33.8046 30 33.3335V31.6668H10ZM9.66667 16.6668H30.3333L28.5833 11.6668H11.4167L9.66667 16.6668ZM12.5 26.6668C13.1944 26.6668 13.785 26.4241 14.2717 25.9385C14.7583 25.4529 15.0011 24.8624 15 24.1668C14.9989 23.4713 14.7561 22.8813 14.2717 22.3968C13.7872 21.9124 13.1967 21.6691 12.5 21.6668C11.8033 21.6646 11.2133 21.9079 10.73 22.3968C10.2467 22.8857 10.0033 23.4757 10 24.1668C9.99667 24.8579 10.24 25.4485 10.73 25.9385C11.22 26.4285 11.81 26.6713 12.5 26.6668ZM27.5 26.6668C28.1944 26.6668 28.785 26.4241 29.2717 25.9385C29.7583 25.4529 30.0011 24.8624 30 24.1668C29.9989 23.4713 29.7561 22.8813 29.2717 22.3968C28.7872 21.9124 28.1967 21.6691 27.5 21.6668C26.8033 21.6646 26.2133 21.9079 25.73 22.3968C25.2467 22.8857 25.0033 23.4757 25 24.1668C24.9967 24.8579 25.24 25.4485 25.73 25.9385C26.22 26.4285 26.81 26.6713 27.5 26.6668Z" fill="#113F67"/>
</svg>
