<svg width="30" height="30" viewBox="0 0 30 30" fill="none" xmlns="http://www.w3.org/2000/svg">
<path d="M15 15C15.6875 15 16.2762 14.7554 16.7663 14.2663C17.2563 13.7771 17.5008 13.1883 17.5 12.5C17.4992 11.8117 17.2546 11.2233 16.7663 10.735C16.2779 10.2467 15.6892 10.0017 15 10C14.3108 9.99833 13.7225 10.2433 13.235 10.735C12.7475 11.2267 12.5025 11.815 12.5 12.5C12.4975 13.185 12.7425 13.7738 13.235 14.2663C13.7275 14.7587 14.3158 15.0033 15 15ZM15 24.1875C17.5417 21.8542 19.4271 19.7346 20.6562 17.8287C21.8854 15.9229 22.5 14.23 22.5 12.75C22.5 10.4792 21.7763 8.62 20.3288 7.1725C18.8813 5.725 17.105 5.00083 15 5C12.895 4.99917 11.1192 5.72333 9.6725 7.1725C8.22583 8.62167 7.50167 10.4808 7.5 12.75C7.5 14.2292 8.11458 15.9221 9.34375 17.8287C10.5729 19.7354 12.4583 21.855 15 24.1875ZM15 27.5C11.6458 24.6458 9.14083 21.995 7.485 19.5475C5.82917 17.1 5.00083 14.8342 5 12.75C5 9.625 6.00542 7.13542 8.01625 5.28125C10.0271 3.42708 12.355 2.5 15 2.5C17.645 2.5 19.9733 3.42708 21.985 5.28125C23.9967 7.13542 25.0017 9.625 25 12.75C25 14.8333 24.1721 17.0992 22.5163 19.5475C20.8604 21.9958 18.355 24.6467 15 27.5Z" fill="#113F67"/>
</svg>
