<svg width="16" height="20" viewBox="0 0 16 20" fill="none" xmlns="http://www.w3.org/2000/svg">
<path d="M7.99984 9.99967C8.504 9.99967 8.93575 9.82031 9.29509 9.46159C9.65442 9.10287 9.83378 8.67112 9.83317 8.16634C9.83256 7.66156 9.6532 7.23012 9.29509 6.87201C8.93698 6.5139 8.50523 6.33423 7.99984 6.33301C7.49445 6.33179 7.063 6.51145 6.7055 6.87201C6.348 7.23256 6.16834 7.66401 6.1665 8.16634C6.16467 8.66867 6.34434 9.10042 6.7055 9.46159C7.06667 9.82276 7.49811 10.0021 7.99984 9.99967ZM7.99984 16.7372C9.86373 15.0261 11.2464 13.4717 12.1478 12.0741C13.0491 10.6765 13.4998 9.43501 13.4998 8.34967C13.4998 6.6844 12.9691 5.32101 11.9076 4.25951C10.8461 3.19801 9.5435 2.66695 7.99984 2.66634C6.45617 2.66573 5.15389 3.19679 4.093 4.25951C3.03211 5.32223 2.50106 6.68562 2.49984 8.34967C2.49984 9.4344 2.95053 10.6759 3.85192 12.0741C4.75331 13.4723 6.13595 15.0267 7.99984 16.7372ZM7.99984 19.1663C5.54011 17.0733 3.70311 15.1293 2.48884 13.3345C1.27456 11.5397 0.667115 9.87806 0.666504 8.34967C0.666504 6.05801 1.40381 4.23231 2.87842 2.87259C4.35303 1.51287 6.06017 0.833008 7.99984 0.833008C9.9395 0.833008 11.6469 1.51287 13.1222 2.87259C14.5974 4.23231 15.3344 6.05801 15.3332 8.34967C15.3332 9.87745 14.726 11.5391 13.5118 13.3345C12.2975 15.13 10.4602 17.0739 7.99984 19.1663Z" fill="#113F67"/>
</svg>
