<svg width="30" height="31" viewBox="0 0 30 31" fill="none" xmlns="http://www.w3.org/2000/svg">
<path d="M16.25 16.75H13.75V9.25H16.25M16.25 21.75H13.75V19.25H16.25M15 3C13.3585 3 11.733 3.32332 10.2165 3.95151C8.69989 4.57969 7.3219 5.50043 6.16117 6.66117C3.81696 9.00537 2.5 12.1848 2.5 15.5C2.5 18.8152 3.81696 21.9946 6.16117 24.3388C7.3219 25.4996 8.69989 26.4203 10.2165 27.0485C11.733 27.6767 13.3585 28 15 28C18.3152 28 21.4946 26.683 23.8388 24.3388C26.183 21.9946 27.5 18.8152 27.5 15.5C27.5 13.8585 27.1767 12.233 26.5485 10.7165C25.9203 9.19989 24.9996 7.8219 23.8388 6.66117C22.6781 5.50043 21.3001 4.57969 19.7835 3.95151C18.267 3.32332 16.6415 3 15 3Z" fill="#727374"/>
</svg>
