<svg width="25" height="26" viewBox="0 0 25 26" fill="none" xmlns="http://www.w3.org/2000/svg">
<path d="M12.4777 0.500067C5.65273 0.500067 0.0902346 6.06257 0.0902346 12.8876C0.0902346 15.0751 0.665234 17.2001 1.74023 19.0751L-0.00976562 25.5001L6.55273 23.7751C8.36523 24.7626 10.4027 25.2876 12.4777 25.2876C19.3027 25.2876 24.8652 19.7251 24.8652 12.9001C24.8652 9.58757 23.5777 6.47507 21.2402 4.13757C20.0941 2.9802 18.729 2.06253 17.2246 1.43802C15.7202 0.813516 14.1066 0.494671 12.4777 0.500067ZM12.4902 2.58757C15.2402 2.58757 17.8152 3.66257 19.7652 5.61257C20.722 6.56947 21.4805 7.70571 21.9975 8.95622C22.5144 10.2067 22.7795 11.5469 22.7777 12.9001C22.7777 18.5751 18.1527 23.1876 12.4777 23.1876C10.6277 23.1876 8.81523 22.7001 7.24023 21.7501L6.86523 21.5376L2.96523 22.5626L4.00273 18.7626L3.75273 18.3626C2.72092 16.7231 2.17482 14.8247 2.17773 12.8876C2.19023 7.21257 6.80273 2.58757 12.4902 2.58757ZM8.09023 7.16257C7.89023 7.16257 7.55273 7.23757 7.26523 7.55007C6.99023 7.86257 6.17773 8.62507 6.17773 10.1376C6.17773 11.6626 7.29023 13.1251 7.42773 13.3376C7.60273 13.5501 9.62773 16.6751 12.7402 18.0001C13.4777 18.3376 14.0527 18.5251 14.5027 18.6626C15.2402 18.9001 15.9152 18.8626 16.4527 18.7876C17.0527 18.7001 18.2777 18.0376 18.5402 17.3126C18.8027 16.5876 18.8027 15.9751 18.7277 15.8376C18.6402 15.7126 18.4402 15.6376 18.1277 15.5001C17.8152 15.3251 16.2902 14.5751 16.0152 14.4751C15.7277 14.3751 15.5527 14.3251 15.3152 14.6251C15.1152 14.9376 14.5152 15.6376 14.3402 15.8376C14.1527 16.0501 13.9777 16.0751 13.6777 15.9251C13.3527 15.7626 12.3527 15.4376 11.1777 14.3876C10.2527 13.5626 9.64023 12.5501 9.45273 12.2376C9.30273 11.9376 9.44023 11.7501 9.59023 11.6126C9.72773 11.4751 9.92773 11.2501 10.0527 11.0626C10.2152 10.8876 10.2652 10.7501 10.3652 10.5501C10.4652 10.3376 10.4152 10.1626 10.3402 10.0126C10.2652 9.87507 9.64023 8.32507 9.37774 7.71257C9.12773 7.11257 8.87773 7.18757 8.67773 7.17507C8.50273 7.17507 8.30273 7.16257 8.09023 7.16257Z" fill="#18901D"/>
</svg>
