<svg width="90" height="20" viewBox="0 0 90 20" fill="none" xmlns="http://www.w3.org/2000/svg">
<g clip-path="url(#clip0_3202_9570)">
<path d="M28.1056 3.09138C27.9408 2.49381 27.6192 1.94903 27.1729 1.51131C26.7266 1.07358 26.1712 0.758192 25.5619 0.596552C23.3314 0 14.3553 0 14.3553 0C14.3553 0 5.37889 0.0181035 3.14875 0.614655C2.53953 0.776321 1.98412 1.09172 1.53785 1.52945C1.09158 1.96717 0.770019 2.51193 0.605196 3.10948C-0.0694529 6.99655 -0.331191 12.9191 0.623653 16.6505C0.788476 17.2481 1.11004 17.7928 1.55631 18.2306C2.00258 18.6683 2.55799 18.9837 3.16721 19.1453C5.39752 19.7419 14.3738 19.7419 14.3738 19.7419C14.3738 19.7419 23.3501 19.7419 25.5804 19.1453C26.1896 18.9837 26.745 18.6683 27.1913 18.2306C27.6375 17.7928 27.9591 17.2481 28.1239 16.6505C28.8353 12.7581 29.0547 6.83914 28.1055 3.09155" fill="#FF0000"/>
<path d="M11.498 14.1015L18.9445 9.87114L11.498 5.64062V14.1015Z" fill="white"/>
<path d="M86.3508 5.73097C87.3276 5.73097 88.0648 5.91165 88.5809 6.2551C89.097 6.59867 89.4657 7.14108 89.6869 7.88234C89.9081 8.62355 90.0002 9.63579 90.0002 10.9375V13.0529H85.2632V13.7036L85.3371 15.4934C85.3923 15.8911 85.4845 16.1804 85.6318 16.3611C85.7795 16.542 86.0189 16.6323 86.3323 16.6323C86.7563 16.6323 87.0513 16.4698 87.1986 16.1444C87.3645 15.8189 87.4382 15.2765 87.4566 14.5353L89.9081 14.6799C89.9265 14.7884 89.9265 14.933 89.9265 15.1137C89.9265 16.2527 89.6131 17.1025 88.968 17.6629C88.3229 18.2232 87.4382 18.5125 86.277 18.5125C84.8762 18.5125 83.8993 18.0787 83.3463 17.2291C82.7935 16.3792 82.4985 15.0413 82.4985 13.2517V11.0641C82.5611 7.99079 83.1122 5.73993 86.3508 5.73097ZM52.2703 5.96596V15.0234C52.2703 15.5658 52.3255 15.9636 52.4545 16.1986C52.7163 16.7011 53.3946 16.5727 53.7632 16.3251C53.976 16.184 54.1475 15.9908 54.2609 15.7648V5.96579H57.0809V18.3136H54.8691L54.6295 16.7949H54.5743C53.9661 17.9339 53.0627 18.5123 51.8648 18.5123C50.0208 18.5079 49.5696 17.2048 49.4622 15.8813L49.4552 15.788C49.4419 15.5876 49.4341 15.3868 49.4318 15.186V5.96596H52.2703ZM66.813 5.96596V15.0234C66.813 15.5658 66.8682 15.9636 66.9973 16.1986C67.2592 16.7011 67.9373 16.5727 68.306 16.3251C68.5187 16.184 68.6902 15.9908 68.8036 15.7648V5.96579H71.6237V18.3136H69.4118L69.1722 16.7949H69.117C68.5088 17.9339 67.6055 18.5123 66.4075 18.5123C64.5636 18.5079 64.1123 17.2048 64.0049 15.8813L63.9979 15.788C63.9846 15.5876 63.9768 15.3868 63.9745 15.186V5.96596H66.813ZM44.0865 5.73097C45.0081 5.73097 45.7638 5.91165 46.3168 6.29131C46.8696 6.67097 47.2936 7.24959 47.5516 8.04493C47.8097 8.84045 47.9387 9.907 47.9387 11.2268V13.0165C47.9387 14.3363 47.8097 15.3849 47.5516 16.1803C47.2936 16.976 46.8881 17.5544 46.3168 17.9341C45.7455 18.2956 44.9712 18.4944 44.0128 18.4944C43.0174 18.5125 42.2432 18.3137 41.6719 17.9522C41.1006 17.5725 40.6949 16.9939 40.4555 16.1986C40.2158 15.403 40.1052 14.3544 40.1052 13.0348V11.2448C40.1052 9.92493 40.2342 8.84027 40.5107 8.04476C40.7872 7.23131 41.211 6.65269 41.801 6.29131C42.3907 5.92959 43.1464 5.73079 44.0865 5.73079M76.0474 0.777344V7.28562H76.0658C76.3239 6.81562 76.6556 6.43597 77.1165 6.14665C77.5469 5.86296 78.0539 5.7119 78.5725 5.71286C79.2545 5.71286 79.7706 5.89355 80.1577 6.237C80.5447 6.59872 80.8212 7.15907 80.987 7.93648C81.1478 8.68959 81.2392 9.73114 81.2449 11.0446L81.245 11.1727V13.1251C81.245 14.951 81.0055 16.307 80.563 17.1748C80.1025 18.0425 79.402 18.4765 78.4434 18.4765C77.9091 18.4765 77.4297 18.3499 76.9874 18.1149C76.5963 17.8912 76.272 17.5706 76.047 17.1853L76.0104 17.1204H75.9553L75.6603 18.2956H73.3194V0.777516L76.0474 0.777344ZM64.767 1.4101V3.65165H61.9654V18.3136H59.2007V3.65183H56.3806V1.41027L64.767 1.4101ZM34.3728 1.4101L34.3746 1.417C34.4014 1.53441 34.7741 3.15941 35.184 5.05269L35.2164 5.20269L35.2652 5.42941L35.2979 5.58165L35.3143 5.65803L35.347 5.81114L35.3633 5.88786L35.3958 6.04148L35.4433 6.26614C35.7202 7.57717 35.9844 8.892 36.1424 9.83476H36.2162C36.3676 8.98907 36.5875 7.90683 36.822 6.80183L36.8835 6.51321C36.9143 6.36861 36.9454 6.22424 36.9766 6.0801L37.0248 5.85648C37.3432 4.39214 37.6712 2.92981 38.0087 1.46959L38.0139 1.44631L38.0224 1.4101H40.8424L37.5799 12.8179V18.2956H34.7968V12.8358H34.7783L31.5527 1.40993L34.3728 1.4101ZM44.0311 7.64717C43.644 7.64717 43.386 7.84614 43.2202 8.262C43.0545 8.67786 42.9806 9.31045 42.9806 10.1965V14.0472C42.9806 14.9511 43.0543 15.6199 43.2018 16.0179C43.3493 16.4156 43.6257 16.6144 44.0311 16.6144C44.4182 16.6144 44.6947 16.4156 44.8606 16.0179C45.0265 15.6199 45.1002 14.9511 45.1002 14.0472V10.1963C45.1002 9.31045 45.0264 8.65958 44.8606 8.26183C44.6947 7.84614 44.4182 7.64717 44.0311 7.64717ZM76.545 8.0089C76.3204 8.21234 76.1606 8.46321 76.0655 8.77683L76.0474 8.84045V15.8549C76.2759 16.2346 76.6004 16.4877 77.1717 16.5058C77.4665 16.5058 77.7062 16.3973 77.8906 16.1804C78.0748 15.9636 78.2038 15.6019 78.2775 15.0956C78.3484 14.6098 78.3853 13.9406 78.3881 13.088V11.3715C78.3881 10.3953 78.3512 9.65407 78.296 9.12976C78.2221 8.60545 78.1302 8.22579 77.9643 8.0089C77.6435 7.55683 76.9505 7.56234 76.545 8.0089ZM86.2956 7.59303C85.9821 7.61108 85.7609 7.70148 85.6318 7.86424C85.4845 8.04493 85.3923 8.31614 85.3371 8.7139C85.2827 9.10355 85.2641 10.4656 85.2632 10.5201V11.4077H87.3276V10.6249V10.6399C87.3264 10.9136 87.3206 10.4811 87.3079 9.95028L87.3061 9.8789C87.2945 9.41234 87.2777 8.89217 87.2539 8.7139C87.1986 8.29803 87.1063 8.00872 86.959 7.84614C86.8115 7.68338 86.5904 7.59303 86.2954 7.59303" fill="#282828"/>
</g>
<defs>
<clipPath id="clip0_3202_9570">
<rect width="90" height="20" fill="white"/>
</clipPath>
</defs>
</svg>
