<svg width="30" height="31" viewBox="0 0 30 31" fill="none" xmlns="http://www.w3.org/2000/svg">
<path fill-rule="evenodd" clip-rule="evenodd" d="M27.5 15.5C27.5 22.4037 21.9037 28 15 28C8.09625 28 2.5 22.4037 2.5 15.5C2.5 8.59625 8.09625 3 15 3C21.9037 3 27.5 8.59625 27.5 15.5ZM10.1388 20.3612C10.0216 20.244 9.95576 20.0851 9.95576 19.9194C9.95576 19.7536 10.0216 19.5947 10.1388 19.4775L14.1163 15.5L10.1388 11.5225C10.0249 11.4046 9.96191 11.2467 9.96333 11.0829C9.96475 10.919 10.0305 10.7622 10.1464 10.6464C10.2622 10.5305 10.419 10.4648 10.5829 10.4633C10.7467 10.4619 10.9046 10.5249 11.0225 10.6388L15 14.6163L18.9775 10.6388C19.0954 10.5249 19.2533 10.4619 19.4171 10.4633C19.581 10.4648 19.7378 10.5305 19.8536 10.6464C19.9695 10.7622 20.0352 10.919 20.0367 11.0829C20.0381 11.2467 19.9751 11.4046 19.8612 11.5225L15.8837 15.5L19.8612 19.4775C19.9751 19.5954 20.0381 19.7533 20.0367 19.9171C20.0352 20.081 19.9695 20.2378 19.8536 20.3536C19.7378 20.4695 19.581 20.5352 19.4171 20.5367C19.2533 20.5381 19.0954 20.4751 18.9775 20.3612L15 16.3837L11.0225 20.3612C10.9053 20.4784 10.7464 20.5442 10.5806 20.5442C10.4149 20.5442 10.256 20.4784 10.1388 20.3612Z" fill="#D83535"/>
</svg>
